<svg width="326" height="309" viewBox="0 0 326 309" fill="none" xmlns="http://www.w3.org/2000/svg">
<g id="door_interiorSingleSwing_32in">
<rect id="doorOpening" x="34.25" y="263.25" width="257.5" height="37.5" fill="white" stroke="#8E8E8E" stroke-width="0.5"/>
<path id="doorSwing" d="M291 264C291 122.615 176.385 8 35 8" stroke="black" stroke-width="6" stroke-dasharray="20 20"/>
<g id="doorFrame_interior_hinge">
<rect id="doorTrim_outside" x="1" y="300" width="32" height="8" fill="#3F3F3F" stroke="black" stroke-width="2"/>
<rect id="doorTrim_inside" x="1" y="256" width="32" height="8" fill="#3F3F3F" stroke="black" stroke-width="2"/>
<rect id="doorJamb_hinge" x="35" y="264" width="36" height="8" transform="rotate(90 35 264)" fill="#3F3F3F" stroke="black" stroke-width="2"/>
</g>
<g id="doorFrame_interior_latch">
<rect id="doorTrim_outside_2" x="293" y="300" width="32" height="8" fill="#3F3F3F" stroke="black" stroke-width="2"/>
<rect id="doorTrim_inside_2" x="293" y="256" width="32" height="8" fill="#3F3F3F" stroke="black" stroke-width="2"/>
<rect id="doorJamb_hinge_2" x="299" y="264" width="36" height="8" transform="rotate(90 299 264)" fill="#3F3F3F" stroke="black" stroke-width="2"/>
</g>
<g id="doorPanel">
<g id="ext_lines02">
<path id="ext2_3" d="M35 272L35 264" stroke="black" stroke-width="2"/>
<path id="ext2_2" d="M46 272L46 264" stroke="black" stroke-width="2"/>
<path id="ext2_1" d="M28 264L53 264" stroke="black" stroke-width="2"/>
</g>
<rect id="panel_rect" x="35" y="264" width="256" height="11" transform="rotate(-90 35 264)" fill="black" stroke="black" stroke-width="2"/>
<g id="ext_lines01">
<path id="ext1_3" d="M35 8L35 -3.57628e-07" stroke="black" stroke-width="2"/>
<path id="ext1_2" d="M46 8L46 -1.19209e-07" stroke="black" stroke-width="2"/>
<path id="ext1_1" d="M28 8L53 8" stroke="black" stroke-width="2"/>
</g>
</g>
</g>
</svg>
