<svg width="482" height="364" viewBox="0 0 482 364" fill="none" xmlns="http://www.w3.org/2000/svg">
<g id="door_exteriorSingleSwing_36in+12inSL_51.5in">
<rect id="doorOpening" x="35" y="297" width="412" height="58" fill="white" stroke="#8E8E8E" stroke-width="2"/>
<g id="sidelitePanel">
<rect x="335" y="306" width="112" height="14" fill="white"/>
<rect x="335" y="306" width="112" height="14" stroke="black" stroke-width="2"/>
<rect id="sideliteFrame01" x="335" y="306" width="24" height="14" fill="white" stroke="black" stroke-width="2"/>
<rect id="sideliteGlass" x="359" y="311" width="64" height="4" fill="white" stroke="black" stroke-width="2"/>
<rect id="sideliteFrame02" x="423" y="306" width="24" height="14" fill="white" stroke="black" stroke-width="2"/>
</g>
<rect id="sideliteMullion" x="323" y="297" width="12" height="32" fill="#3F3F3F" stroke="black" stroke-width="2"/>
<path id="doorSwing" d="M323 297C323 137.942 194.058 9 35 9" stroke="black" stroke-width="6" stroke-dasharray="20 20"/>
<g id="doorFrame_exterior_latch">
<rect id="doorTrim_outside" x="449" y="355" width="32" height="8" fill="#3F3F3F" stroke="black" stroke-width="2"/>
<rect id="doorTrim_inside" x="449" y="289" width="32" height="8" fill="#3F3F3F" stroke="black" stroke-width="2"/>
<rect id="doorJamb_hinge" x="455" y="297" width="58" height="8" transform="rotate(90 455 297)" fill="#3F3F3F" stroke="black" stroke-width="2"/>
</g>
<g id="doorFrame_exterior_hinge">
<rect id="doorTrim_outside_2" x="1" y="355" width="32" height="8" fill="#3F3F3F" stroke="black" stroke-width="2"/>
<rect id="doorTrim_inside_2" x="1" y="289" width="32" height="8" fill="#3F3F3F" stroke="black" stroke-width="2"/>
<rect id="doorJamb_hinge_2" x="35" y="297" width="58" height="8" transform="rotate(90 35 297)" fill="#3F3F3F" stroke="black" stroke-width="2"/>
</g>
<g id="doorPanel">
<g id="ext_lines02">
<path id="ext2_3" d="M35 305L35 297" stroke="black" stroke-width="2"/>
<path id="ext2_2" d="M49 305L49 297" stroke="black" stroke-width="2"/>
<path id="ext2_1" d="M28 297L56 297" stroke="black" stroke-width="2"/>
</g>
<rect id="panel_rect" x="35" y="297" width="288" height="14" transform="rotate(-90 35 297)" fill="black" stroke="black" stroke-width="2"/>
<g id="ext_lines01">
<path id="ext1_3" d="M35 9L35 1" stroke="black" stroke-width="2"/>
<path id="ext1_2" d="M49 9L49 1" stroke="black" stroke-width="2"/>
<path id="ext1_1" d="M28 9L56 9" stroke="black" stroke-width="2"/>
</g>
</g>
</g>
</svg>
