<svg width="1606" height="206" viewBox="0 0 1606 206" fill="none" xmlns="http://www.w3.org/2000/svg">
<g id="door_exterior_bifold_192in">
<rect id="doorOpening" x="34" y="138.013" width="1538" height="59" fill="white"/>
<rect id="doorTracks" x="35" y="138.013" width="1536" height="52" fill="white" stroke="black" stroke-width="2"/>
<g id="doorPanel_glass">
<g id="ext_lines02">
<path id="ext2_3" d="M28.5 142.072L35.4282 138.072" stroke="black" stroke-width="2"/>
<path id="ext2_2" d="M40.5 162.856L47.4282 158.856" stroke="black" stroke-width="2"/>
<path id="ext2_1" d="M31.9282 132.01L50.9282 164.919" stroke="black" stroke-width="2"/>
</g>
<g id="panel_overall">
<rect x="35.4282" y="138.072" width="256" height="24" transform="rotate(-30 35.4282 138.072)" fill="#D2D2D2"/>
<rect x="35.4282" y="138.072" width="256" height="24" transform="rotate(-30 35.4282 138.072)" stroke="black" stroke-width="2"/>
<rect id="mullion_rect" x="35.4282" y="138.072" width="24" height="24" transform="rotate(-30 35.4282 138.072)" fill="#3F3F3F" stroke="black" stroke-width="2"/>
<rect id="glass_rect" x="59.8469" y="134.366" width="210" height="6" transform="rotate(-30 59.8469 134.366)" fill="white" stroke="black" stroke-width="2"/>
<rect id="mullion_rect_2" x="236.346" y="22.0723" width="24" height="24" transform="rotate(-30 236.346 22.0723)" fill="#3F3F3F" stroke="black" stroke-width="2"/>
</g>
<g id="ext_lines02_2">
<path id="ext2_3_2" d="M264.059 6.07227L257.131 10.0723" stroke="black" stroke-width="2"/>
<path id="ext2_2_2" d="M276.059 26.8564L269.131 30.8564" stroke="black" stroke-width="2"/>
<path id="ext2_1_2" d="M253.631 4.00977L272.631 36.9187" stroke="black" stroke-width="2"/>
</g>
</g>
<g id="doorPanel_glass_2">
<g id="ext_lines02_3">
<path id="ext2_3_3" d="M496.5 142.071L503.428 138.071" stroke="black" stroke-width="2"/>
<path id="ext2_2_3" d="M508.5 162.855L515.428 158.855" stroke="black" stroke-width="2"/>
<path id="ext2_1_3" d="M499.928 132.009L518.928 164.918" stroke="black" stroke-width="2"/>
</g>
<g id="panel_overall_2">
<rect x="503.428" y="138.071" width="256" height="24" transform="rotate(-30 503.428 138.071)" fill="#D2D2D2"/>
<rect x="503.428" y="138.071" width="256" height="24" transform="rotate(-30 503.428 138.071)" stroke="black" stroke-width="2"/>
<rect id="mullion_rect_3" x="503.428" y="138.071" width="24" height="24" transform="rotate(-30 503.428 138.071)" fill="#3F3F3F" stroke="black" stroke-width="2"/>
<rect id="glass_rect_2" x="527.847" y="134.365" width="210" height="6" transform="rotate(-30 527.847 134.365)" fill="white" stroke="black" stroke-width="2"/>
<rect id="mullion_rect_4" x="704.346" y="22.0713" width="24" height="24" transform="rotate(-30 704.346 22.0713)" fill="#3F3F3F" stroke="black" stroke-width="2"/>
</g>
<g id="ext_lines02_4">
<path id="ext2_3_4" d="M732.059 6.07129L725.131 10.0713" stroke="black" stroke-width="2"/>
<path id="ext2_2_4" d="M744.059 26.8555L737.131 30.8555" stroke="black" stroke-width="2"/>
<path id="ext2_1_4" d="M721.631 4.00879L740.631 36.9178" stroke="black" stroke-width="2"/>
</g>
</g>
<g id="doorPanel_glass_3">
<g id="ext_lines02_5">
<path id="ext2_3_5" d="M510.059 142.062L503.131 138.063" stroke="black" stroke-width="2"/>
<path id="ext2_2_5" d="M498.059 162.847L491.131 158.847" stroke="black" stroke-width="2"/>
<path id="ext2_1_5" d="M506.631 132L487.631 164.909" stroke="black" stroke-width="2"/>
</g>
<g id="panel_overall_3">
<rect width="256" height="24" transform="matrix(-0.866025 -0.5 -0.5 0.866025 503.131 138.062)" fill="#D2D2D2"/>
<rect width="256" height="24" transform="matrix(-0.866025 -0.5 -0.5 0.866025 503.131 138.062)" stroke="black" stroke-width="2"/>
<rect id="mullion_rect_5" width="24" height="24" transform="matrix(-0.866025 -0.5 -0.5 0.866025 503.131 138.062)" fill="#3F3F3F" stroke="black" stroke-width="2"/>
<rect id="glass_rect_3" x="1.36603" y="-0.366025" width="210" height="6" transform="matrix(-0.866025 -0.5 -0.5 0.866025 479.712 135.357)" fill="white" stroke="black" stroke-width="2"/>
<rect id="mullion_rect_6" width="24" height="24" transform="matrix(-0.866025 -0.5 -0.5 0.866025 302.213 22.0625)" fill="#3F3F3F" stroke="black" stroke-width="2"/>
</g>
<g id="ext_lines02_6">
<path id="ext2_3_6" d="M274.5 6.0625L281.429 10.0625" stroke="black" stroke-width="2"/>
<path id="ext2_2_6" d="M262.5 26.8467L269.429 30.8467" stroke="black" stroke-width="2"/>
<path id="ext2_1_6" d="M284.929 4L265.929 36.909" stroke="black" stroke-width="2"/>
</g>
</g>
<g id="doorPanel_glass_4">
<g id="ext_lines02_7">
<path id="ext2_3_7" d="M1577.06 142.074L1570.13 138.074" stroke="black" stroke-width="2"/>
<path id="ext2_2_7" d="M1565.06 162.858L1558.13 158.858" stroke="black" stroke-width="2"/>
<path id="ext2_1_7" d="M1573.63 132.012L1554.63 164.921" stroke="black" stroke-width="2"/>
</g>
<g id="panel_overall_4">
<rect width="256" height="24" transform="matrix(-0.866025 -0.5 -0.5 0.866025 1570.13 138.074)" fill="#D2D2D2"/>
<rect width="256" height="24" transform="matrix(-0.866025 -0.5 -0.5 0.866025 1570.13 138.074)" stroke="black" stroke-width="2"/>
<rect id="mullion_rect_7" width="24" height="24" transform="matrix(-0.866025 -0.5 -0.5 0.866025 1570.13 138.074)" fill="#3F3F3F" stroke="black" stroke-width="2"/>
<rect id="glass_rect_4" x="1.36603" y="-0.366025" width="210" height="6" transform="matrix(-0.866025 -0.5 -0.5 0.866025 1546.71 135.368)" fill="white" stroke="black" stroke-width="2"/>
<rect id="mullion_rect_8" width="24" height="24" transform="matrix(-0.866025 -0.5 -0.5 0.866025 1369.21 22.0742)" fill="#3F3F3F" stroke="black" stroke-width="2"/>
</g>
<g id="ext_lines02_8">
<path id="ext2_3_8" d="M1341.5 6.07422L1348.43 10.0742" stroke="black" stroke-width="2"/>
<path id="ext2_2_8" d="M1329.5 26.8584L1336.43 30.8584" stroke="black" stroke-width="2"/>
<path id="ext2_1_8" d="M1351.93 4.01172L1332.93 36.9207" stroke="black" stroke-width="2"/>
</g>
</g>
<g id="doorPanel_glass_5">
<g id="ext_lines02_9">
<path id="ext2_3_9" d="M1109.06 142.072L1102.13 138.072" stroke="black" stroke-width="2"/>
<path id="ext2_2_9" d="M1097.06 162.856L1090.13 158.856" stroke="black" stroke-width="2"/>
<path id="ext2_1_9" d="M1105.63 132.01L1086.63 164.919" stroke="black" stroke-width="2"/>
</g>
<g id="panel_overall_5">
<rect width="256" height="24" transform="matrix(-0.866025 -0.5 -0.5 0.866025 1102.13 138.072)" fill="#D2D2D2"/>
<rect width="256" height="24" transform="matrix(-0.866025 -0.5 -0.5 0.866025 1102.13 138.072)" stroke="black" stroke-width="2"/>
<rect id="mullion_rect_9" width="24" height="24" transform="matrix(-0.866025 -0.5 -0.5 0.866025 1102.13 138.072)" fill="#3F3F3F" stroke="black" stroke-width="2"/>
<rect id="glass_rect_5" x="1.36603" y="-0.366025" width="210" height="6" transform="matrix(-0.866025 -0.5 -0.5 0.866025 1078.71 135.366)" fill="white" stroke="black" stroke-width="2"/>
<rect id="mullion_rect_10" width="24" height="24" transform="matrix(-0.866025 -0.5 -0.5 0.866025 901.213 22.0723)" fill="#3F3F3F" stroke="black" stroke-width="2"/>
</g>
<g id="ext_lines02_10">
<path id="ext2_3_10" d="M873.5 6.07227L880.429 10.0723" stroke="black" stroke-width="2"/>
<path id="ext2_2_10" d="M861.5 26.8564L868.429 30.8564" stroke="black" stroke-width="2"/>
<path id="ext2_1_10" d="M883.929 4.00977L864.929 36.9187" stroke="black" stroke-width="2"/>
</g>
</g>
<g id="doorPanel_glass_6">
<g id="ext_lines02_11">
<path id="ext2_3_11" d="M1095.5 142.064L1102.43 138.064" stroke="black" stroke-width="2"/>
<path id="ext2_2_11" d="M1107.5 162.849L1114.43 158.849" stroke="black" stroke-width="2"/>
<path id="ext2_1_11" d="M1098.93 132.002L1117.93 164.911" stroke="black" stroke-width="2"/>
</g>
<g id="panel_overall_6">
<rect x="1102.43" y="138.064" width="256" height="24" transform="rotate(-30 1102.43 138.064)" fill="#D2D2D2"/>
<rect x="1102.43" y="138.064" width="256" height="24" transform="rotate(-30 1102.43 138.064)" stroke="black" stroke-width="2"/>
<rect id="mullion_rect_11" x="1102.43" y="138.064" width="24" height="24" transform="rotate(-30 1102.43 138.064)" fill="#3F3F3F" stroke="black" stroke-width="2"/>
<rect id="glass_rect_6" x="1126.85" y="134.359" width="210" height="6" transform="rotate(-30 1126.85 134.359)" fill="white" stroke="black" stroke-width="2"/>
<rect id="mullion_rect_12" x="1303.35" y="22.0645" width="24" height="24" transform="rotate(-30 1303.35 22.0645)" fill="#3F3F3F" stroke="black" stroke-width="2"/>
</g>
<g id="ext_lines02_12">
<path id="ext2_3_12" d="M1331.06 6.06445L1324.13 10.0645" stroke="black" stroke-width="2"/>
<path id="ext2_2_12" d="M1343.06 26.8486L1336.13 30.8486" stroke="black" stroke-width="2"/>
<path id="ext2_1_12" d="M1320.63 4.00195L1339.63 36.9109" stroke="black" stroke-width="2"/>
</g>
</g>
<g id="doorFrame_exterior_glass_hinge">
<rect id="doorTrim_outside" x="1" y="196.013" width="32" height="8" fill="#3F3F3F" stroke="black" stroke-width="2"/>
<rect id="doorTrim_inside" x="1" y="130.013" width="32" height="8" fill="#3F3F3F" stroke="black" stroke-width="2"/>
<rect id="doorJamb_hinge" x="35" y="138.013" width="58" height="12" transform="rotate(90 35 138.013)" fill="#3F3F3F" stroke="black" stroke-width="2"/>
</g>
<g id="doorFrame_exterior_glass_hinge_2">
<rect id="doorTrim_outside_2" width="32" height="8" transform="matrix(-1 0 0 1 1605 196.013)" fill="#3F3F3F" stroke="black" stroke-width="2"/>
<rect id="doorTrim_inside_2" width="32" height="8" transform="matrix(-1 0 0 1 1605 130.013)" fill="#3F3F3F" stroke="black" stroke-width="2"/>
<rect id="doorJamb_hinge_2" width="58" height="12" transform="matrix(4.37114e-08 1 1 -4.37114e-08 1571 138.013)" fill="#3F3F3F" stroke="black" stroke-width="2"/>
</g>
</g>
</svg>
