<svg width="574" height="364" viewBox="0 0 574 364" fill="none" xmlns="http://www.w3.org/2000/svg">
<g id="door_exteriorSingleSwing_36in+12inSLx2_63in">
<rect id="doorOpening" x="35" y="297" width="504" height="58" fill="white" stroke="#8E8E8E" stroke-width="2"/>
<g id="sidelitePanel">
<rect x="443" y="306" width="96" height="14" fill="white"/>
<rect x="443" y="306" width="96" height="14" stroke="black" stroke-width="2"/>
<rect id="sideliteFrame01" x="443" y="306" width="24" height="14" fill="white" stroke="black" stroke-width="2"/>
<rect id="sideliteGlass" x="467" y="311" width="48" height="4" fill="white" stroke="black" stroke-width="2"/>
<rect id="sideliteFrame02" x="515" y="306" width="24" height="14" fill="white" stroke="black" stroke-width="2"/>
</g>
<g id="sidelitePanel_2">
<rect x="35" y="306" width="96" height="14" fill="white"/>
<rect x="35" y="306" width="96" height="14" stroke="black" stroke-width="2"/>
<rect id="sideliteFrame01_2" x="35" y="306" width="24" height="14" fill="white" stroke="black" stroke-width="2"/>
<rect id="sideliteGlass_2" x="59" y="311" width="48" height="4" fill="white" stroke="black" stroke-width="2"/>
<rect id="sideliteFrame02_2" x="107" y="306" width="24" height="14" fill="white" stroke="black" stroke-width="2"/>
</g>
<rect id="sideliteMullion" x="431" y="297" width="12" height="32" fill="#3F3F3F" stroke="black" stroke-width="2"/>
<rect id="sideliteMullion_2" x="131" y="297" width="12" height="32" fill="#3F3F3F" stroke="black" stroke-width="2"/>
<path id="doorSwing" d="M431 297C431 137.942 302.058 9 143 9" stroke="black" stroke-width="6" stroke-dasharray="20 20"/>
<g id="doorFrame_exterior_latch">
<rect id="doorTrim_outside" x="541" y="355" width="32" height="8" fill="#3F3F3F" stroke="black" stroke-width="2"/>
<rect id="doorTrim_inside" x="541" y="289" width="32" height="8" fill="#3F3F3F" stroke="black" stroke-width="2"/>
<rect id="doorJamb_hinge" x="547" y="297" width="58" height="8" transform="rotate(90 547 297)" fill="#3F3F3F" stroke="black" stroke-width="2"/>
</g>
<g id="doorFrame_exterior_hinge">
<rect id="doorTrim_outside_2" x="1" y="355" width="32" height="8" fill="#3F3F3F" stroke="black" stroke-width="2"/>
<rect id="doorTrim_inside_2" x="1" y="289" width="32" height="8" fill="#3F3F3F" stroke="black" stroke-width="2"/>
<rect id="doorJamb_hinge_2" x="35" y="297" width="58" height="8" transform="rotate(90 35 297)" fill="#3F3F3F" stroke="black" stroke-width="2"/>
</g>
<g id="doorPanel">
<g id="ext_lines02">
<path id="ext2_3" d="M143 305L143 297" stroke="black" stroke-width="2"/>
<path id="ext2_2" d="M157 305L157 297" stroke="black" stroke-width="2"/>
<path id="ext2_1" d="M136 297L164 297" stroke="black" stroke-width="2"/>
</g>
<rect id="panel_rect" x="143" y="297" width="288" height="14" transform="rotate(-90 143 297)" fill="black" stroke="black" stroke-width="2"/>
<g id="ext_lines01">
<path id="ext1_3" d="M143 9L143 1" stroke="black" stroke-width="2"/>
<path id="ext1_2" d="M157 9L157 1" stroke="black" stroke-width="2"/>
<path id="ext1_1" d="M136 9L164 9" stroke="black" stroke-width="2"/>
</g>
</g>
</g>
</svg>
