<svg width="550" height="76" viewBox="0 0 550 76" fill="none" xmlns="http://www.w3.org/2000/svg">
<g id="door_exterior_sliding_60in">
<rect id="doorOpening" x="34" y="9" width="482" height="59" fill="white"/>
<rect id="doorTracks" x="35" y="9" width="480" height="52" fill="white" stroke="black" stroke-width="2"/>
<g id="doorPanel_glass">
<g id="ext_lines02">
<path id="ext2_3" d="M27 9H35" stroke="black" stroke-width="2"/>
<path id="ext2_2" d="M27 33H35" stroke="black" stroke-width="2"/>
<path id="ext2_1" d="M35 2L35 40" stroke="black" stroke-width="2"/>
</g>
<g id="panel_overall">
<rect x="35" y="9" width="252" height="24" fill="#D2D2D2"/>
<rect x="35" y="9" width="252" height="24" stroke="black" stroke-width="2"/>
<rect id="mullion_rect" x="35" y="9" width="24" height="24" fill="#3F3F3F" stroke="black" stroke-width="2"/>
<rect id="glass_rect" x="58" y="18" width="206" height="6" fill="white" stroke="black" stroke-width="2"/>
<rect id="mullion_rect_2" x="263" y="9" width="24" height="24" fill="#3F3F3F" stroke="black" stroke-width="2"/>
</g>
<g id="ext_lines02_2">
<path id="ext2_3_2" d="M295 9H287" stroke="black" stroke-width="2"/>
<path id="ext2_2_2" d="M295 33H287" stroke="black" stroke-width="2"/>
<path id="ext2_1_2" d="M287 2L287 40" stroke="black" stroke-width="2"/>
</g>
</g>
<g id="doorPanel_glass_2">
<g id="ext_lines02_3">
<path id="ext2_3_3" d="M255 33H263" stroke="black" stroke-width="2"/>
<path id="ext2_2_3" d="M255 57H263" stroke="black" stroke-width="2"/>
<path id="ext2_1_3" d="M263 26L263 64" stroke="black" stroke-width="2"/>
</g>
<g id="panel_overall_2">
<rect x="263" y="33" width="252" height="24" fill="#D2D2D2"/>
<rect x="263" y="33" width="252" height="24" stroke="black" stroke-width="2"/>
<rect id="mullion_rect_3" x="263" y="33" width="24" height="24" fill="#3F3F3F" stroke="black" stroke-width="2"/>
<rect id="glass_rect_2" x="286" y="42" width="206" height="6" fill="white" stroke="black" stroke-width="2"/>
<rect id="mullion_rect_4" x="491" y="33" width="24" height="24" fill="#3F3F3F" stroke="black" stroke-width="2"/>
</g>
<g id="ext_lines02_4">
<path id="ext2_3_4" d="M523 33H515" stroke="black" stroke-width="2"/>
<path id="ext2_2_4" d="M523 57H515" stroke="black" stroke-width="2"/>
<path id="ext2_1_4" d="M515 26L515 64" stroke="black" stroke-width="2"/>
</g>
</g>
<g id="doorFrame_exterior_glass_hinge">
<rect id="doorTrim_outside" x="1" y="67" width="32" height="8" fill="#3F3F3F" stroke="black" stroke-width="2"/>
<rect id="doorTrim_inside" x="1" y="1" width="32" height="8" fill="#3F3F3F" stroke="black" stroke-width="2"/>
<rect id="doorJamb_hinge" x="35" y="9" width="58" height="12" transform="rotate(90 35 9)" fill="#3F3F3F" stroke="black" stroke-width="2"/>
</g>
<g id="doorFrame_exterior_glass_hinge_2">
<rect id="doorTrim_outside_2" width="32" height="8" transform="matrix(-1 0 0 1 549 67)" fill="#3F3F3F" stroke="black" stroke-width="2"/>
<rect id="doorTrim_inside_2" width="32" height="8" transform="matrix(-1 0 0 1 549 1)" fill="#3F3F3F" stroke="black" stroke-width="2"/>
<rect id="doorJamb_hinge_2" width="58" height="12" transform="matrix(4.37114e-08 1 1 -4.37114e-08 515 9)" fill="#3F3F3F" stroke="black" stroke-width="2"/>
</g>
</g>
</svg>
