<svg width="646" height="364" viewBox="0 0 646 364" fill="none" xmlns="http://www.w3.org/2000/svg">
<g id="door_exteriorDoubleSwing_72in">
<rect id="doorOpening" x="35" y="297" width="576" height="58" fill="white" stroke="#8E8E8E" stroke-width="2"/>
<path id="doorSwing" d="M323 297C323 137.942 194.058 9 35 9" stroke="black" stroke-width="6" stroke-dasharray="20 20"/>
<g id="doorFrame_exterior_hinge">
<rect id="doorTrim_outside" x="1" y="355" width="32" height="8" fill="#3F3F3F" stroke="black" stroke-width="2"/>
<rect id="doorTrim_inside" x="1" y="289" width="32" height="8" fill="#3F3F3F" stroke="black" stroke-width="2"/>
<rect id="doorJamb_hinge" x="35" y="297" width="58" height="8" transform="rotate(90 35 297)" fill="#3F3F3F" stroke="black" stroke-width="2"/>
</g>
<g id="doorPanel">
<g id="ext_lines02">
<path id="ext2_3" d="M35 305L35 297" stroke="black" stroke-width="2"/>
<path id="ext2_2" d="M49 305L49 297" stroke="black" stroke-width="2"/>
<path id="ext2_1" d="M28 297L56 297" stroke="black" stroke-width="2"/>
</g>
<rect id="panel_rect" x="35" y="297" width="288" height="14" transform="rotate(-90 35 297)" fill="black" stroke="black" stroke-width="2"/>
<g id="ext_lines01">
<path id="ext1_3" d="M35 9L35 1" stroke="black" stroke-width="2"/>
<path id="ext1_2" d="M49 9L49 1" stroke="black" stroke-width="2"/>
<path id="ext1_1" d="M28 9L56 9" stroke="black" stroke-width="2"/>
</g>
</g>
<path id="doorSwing_2" d="M323 297C323 137.942 451.942 9 611 9" stroke="black" stroke-width="6" stroke-dasharray="20 20"/>
<g id="doorFrame_exterior_hinge_2">
<rect id="doorTrim_outside_2" width="32" height="8" transform="matrix(-1 0 0 1 645 355)" fill="#3F3F3F" stroke="black" stroke-width="2"/>
<rect id="doorTrim_inside_2" width="32" height="8" transform="matrix(-1 0 0 1 645 289)" fill="#3F3F3F" stroke="black" stroke-width="2"/>
<rect id="doorJamb_hinge_2" width="58" height="8" transform="matrix(4.37114e-08 1 1 -4.37114e-08 611 297)" fill="#3F3F3F" stroke="black" stroke-width="2"/>
</g>
<g id="doorPanel_2">
<g id="ext_lines02_2">
<path id="ext2_3_2" d="M611 305L611 297" stroke="black" stroke-width="2"/>
<path id="ext2_2_2" d="M597 305L597 297" stroke="black" stroke-width="2"/>
<path id="ext2_1_2" d="M618 297L590 297" stroke="black" stroke-width="2"/>
</g>
<rect id="panel_rect_2" width="288" height="14" transform="matrix(4.37114e-08 -1 -1 -4.37114e-08 611 297)" fill="black" stroke="black" stroke-width="2"/>
<g id="ext_lines01_2">
<path id="ext1_3_2" d="M611 9L611 1" stroke="black" stroke-width="2"/>
<path id="ext1_2_2" d="M597 9L597 1" stroke="black" stroke-width="2"/>
<path id="ext1_1_2" d="M618 9L590 9" stroke="black" stroke-width="2"/>
</g>
</g>
</g>
</svg>
