<svg width="310" height="175" viewBox="0 0 310 175" fill="none" xmlns="http://www.w3.org/2000/svg">
<g id="door_interiorSingleSwing_30in_halfswing">
<rect id="doorOpening" x="34.25" y="129.25" width="241.5" height="37.5" fill="white" stroke="#8E8E8E" stroke-width="0.5"/>
<path id="doorSwing" d="M275 130C275 88.3341 264.382 49.1481 245.705 15" stroke="black" stroke-width="6" stroke-dasharray="20 20"/>
<g id="doorFrame_interior_hinge">
<rect id="doorTrim_outside" x="1" y="166" width="32" height="8" fill="#3F3F3F" stroke="black" stroke-width="2"/>
<rect id="doorTrim_inside" x="1" y="122" width="32" height="8" fill="#3F3F3F" stroke="black" stroke-width="2"/>
<rect id="doorJamb_hinge" x="35" y="130" width="36" height="8" transform="rotate(90 35 130)" fill="#3F3F3F" stroke="black" stroke-width="2"/>
</g>
<g id="doorFrame_interior_latch">
<rect id="doorTrim_outside_2" x="277" y="166" width="32" height="8" fill="#3F3F3F" stroke="black" stroke-width="2"/>
<rect id="doorTrim_inside_2" x="277" y="122" width="32" height="8" fill="#3F3F3F" stroke="black" stroke-width="2"/>
<rect id="doorJamb_hinge_2" x="283" y="130" width="36" height="8" transform="rotate(90 283 130)" fill="#3F3F3F" stroke="black" stroke-width="2"/>
</g>
<g id="doorPanel">
<g id="ext_lines02">
<path id="ext2_3" d="M28.5 134.064L35.4282 130.064" stroke="black" stroke-width="2"/>
<path id="ext2_2" d="M34 143.59L40.9282 139.59" stroke="black" stroke-width="2"/>
<path id="ext2_1" d="M31.9277 124.002L44.4277 145.653" stroke="black" stroke-width="2"/>
</g>
<rect id="panel_rect" x="35.4277" y="130.064" width="240" height="11" transform="rotate(-30 35.4277 130.064)" fill="black" stroke="black" stroke-width="2"/>
<g id="ext_lines01">
<path id="ext1_3" d="M243.275 10.0645L250.204 6.06445" stroke="black" stroke-width="2"/>
<path id="ext1_2" d="M248.775 19.5898L255.704 15.5898" stroke="black" stroke-width="2"/>
<path id="ext1_1" d="M239.775 4.00195L252.275 25.6526" stroke="black" stroke-width="2"/>
</g>
</g>
</g>
</svg>
