<svg width="838" height="76" viewBox="0 0 838 76" fill="none" xmlns="http://www.w3.org/2000/svg">
<g id="door_exterior_sliding_96in">
<rect id="doorOpening" x="34" y="9" width="770" height="59" fill="white"/>
<rect id="doorTracks" x="35" y="9" width="768" height="52" fill="white" stroke="black" stroke-width="2"/>
<g id="doorPanel_glass">
<g id="ext_lines02">
<path id="ext2_3" d="M27 9H35" stroke="black" stroke-width="2"/>
<path id="ext2_2" d="M27 33H35" stroke="black" stroke-width="2"/>
<path id="ext2_1" d="M35 2L35 40" stroke="black" stroke-width="2"/>
</g>
<g id="panel_overall">
<rect x="35" y="9" width="272" height="24" fill="#D2D2D2"/>
<rect x="35" y="9" width="272" height="24" stroke="black" stroke-width="2"/>
<rect id="mullion_rect" x="35" y="9" width="24" height="24" fill="#3F3F3F" stroke="black" stroke-width="2"/>
<rect id="glass_rect" x="58" y="18" width="226" height="6" fill="white" stroke="black" stroke-width="2"/>
<rect id="mullion_rect_2" x="283" y="9" width="24" height="24" fill="#3F3F3F" stroke="black" stroke-width="2"/>
</g>
<g id="ext_lines02_2">
<path id="ext2_3_2" d="M315 9H307" stroke="black" stroke-width="2"/>
<path id="ext2_2_2" d="M315 33H307" stroke="black" stroke-width="2"/>
<path id="ext2_1_2" d="M307 2L307 40" stroke="black" stroke-width="2"/>
</g>
</g>
<g id="doorPanel_glass_2">
<g id="ext_lines02_3">
<path id="ext2_3_3" d="M523 9H531" stroke="black" stroke-width="2"/>
<path id="ext2_2_3" d="M523 33H531" stroke="black" stroke-width="2"/>
<path id="ext2_1_3" d="M531 2L531 40" stroke="black" stroke-width="2"/>
</g>
<g id="panel_overall_2">
<rect x="531" y="9" width="272" height="24" fill="#D2D2D2"/>
<rect x="531" y="9" width="272" height="24" stroke="black" stroke-width="2"/>
<rect id="mullion_rect_3" x="531" y="9" width="24" height="24" fill="#3F3F3F" stroke="black" stroke-width="2"/>
<rect id="glass_rect_2" x="554" y="18" width="226" height="6" fill="white" stroke="black" stroke-width="2"/>
<rect id="mullion_rect_4" x="779" y="9" width="24" height="24" fill="#3F3F3F" stroke="black" stroke-width="2"/>
</g>
<g id="ext_lines02_4">
<path id="ext2_3_4" d="M811 9H803" stroke="black" stroke-width="2"/>
<path id="ext2_2_4" d="M811 33H803" stroke="black" stroke-width="2"/>
<path id="ext2_1_4" d="M803 2L803 40" stroke="black" stroke-width="2"/>
</g>
</g>
<g id="doorPanel_glass_3">
<g id="ext_lines02_5">
<path id="ext2_3_5" d="M275 33H283" stroke="black" stroke-width="2"/>
<path id="ext2_2_5" d="M275 57H283" stroke="black" stroke-width="2"/>
<path id="ext2_1_5" d="M283 26L283 64" stroke="black" stroke-width="2"/>
</g>
<g id="panel_overall_3">
<rect x="283" y="33" width="272" height="24" fill="#D2D2D2"/>
<rect x="283" y="33" width="272" height="24" stroke="black" stroke-width="2"/>
<rect id="mullion_rect_5" x="283" y="33" width="24" height="24" fill="#3F3F3F" stroke="black" stroke-width="2"/>
<rect id="glass_rect_3" x="306" y="42" width="226" height="6" fill="white" stroke="black" stroke-width="2"/>
<rect id="mullion_rect_6" x="531" y="33" width="24" height="24" fill="#3F3F3F" stroke="black" stroke-width="2"/>
</g>
<g id="ext_lines02_6">
<path id="ext2_3_6" d="M563 33H555" stroke="black" stroke-width="2"/>
<path id="ext2_2_6" d="M563 57H555" stroke="black" stroke-width="2"/>
<path id="ext2_1_6" d="M555 26L555 64" stroke="black" stroke-width="2"/>
</g>
</g>
<g id="doorFrame_exterior_glass_hinge">
<rect id="doorTrim_outside" x="1" y="67" width="32" height="8" fill="#3F3F3F" stroke="black" stroke-width="2"/>
<rect id="doorTrim_inside" x="1" y="1" width="32" height="8" fill="#3F3F3F" stroke="black" stroke-width="2"/>
<rect id="doorJamb_hinge" x="35" y="9" width="58" height="12" transform="rotate(90 35 9)" fill="#3F3F3F" stroke="black" stroke-width="2"/>
</g>
<g id="doorFrame_exterior_glass_hinge_2">
<rect id="doorTrim_outside_2" width="32" height="8" transform="matrix(-1 0 0 1 837 67)" fill="#3F3F3F" stroke="black" stroke-width="2"/>
<rect id="doorTrim_inside_2" width="32" height="8" transform="matrix(-1 0 0 1 837 1)" fill="#3F3F3F" stroke="black" stroke-width="2"/>
<rect id="doorJamb_hinge_2" width="58" height="12" transform="matrix(4.37114e-08 1 1 -4.37114e-08 803 9)" fill="#3F3F3F" stroke="black" stroke-width="2"/>
</g>
</g>
</svg>
