<svg width="582" height="331" viewBox="0 0 582 331" fill="none" xmlns="http://www.w3.org/2000/svg">
<g id="door_exteriorDoubleSwing_Glass_64in">
<rect id="doorOpening" x="35" y="264" width="512" height="58" fill="white" stroke="#8E8E8E" stroke-width="2"/>
<path id="doorSwing" d="M291 264C291 122.615 176.385 8 35 8" stroke="black" stroke-width="6" stroke-dasharray="20 20"/>
<g id="doorFrame_exterior_hinge">
<rect id="doorTrim_outside" x="1" y="322" width="32" height="8" fill="#3F3F3F" stroke="black" stroke-width="2"/>
<rect id="doorTrim_inside" x="1" y="256" width="32" height="8" fill="#3F3F3F" stroke="black" stroke-width="2"/>
<rect id="doorJamb_hinge" x="35" y="264" width="58" height="8" transform="rotate(90 35 264)" fill="#3F3F3F" stroke="black" stroke-width="2"/>
</g>
<g id="doorPanel_glass">
<g id="ext_lines02">
<path id="ext2_3" d="M35 272L35 264" stroke="black" stroke-width="2"/>
<path id="ext2_2" d="M51 272L51 264" stroke="black" stroke-width="2"/>
<path id="ext2_1" d="M29 264L57 264" stroke="black" stroke-width="2"/>
</g>
<g id="panel_overall">
<rect x="35" y="264" width="256" height="16" transform="rotate(-90 35 264)" fill="white"/>
<rect x="35" y="264" width="256" height="16" transform="rotate(-90 35 264)" stroke="black" stroke-width="2"/>
<rect id="mullion_rect" x="35" y="264" width="24" height="16" transform="rotate(-90 35 264)" fill="white" stroke="black" stroke-width="2"/>
<rect id="glass_rect" x="41" y="240" width="208" height="4" transform="rotate(-90 41 240)" fill="white" stroke="black" stroke-width="2"/>
<rect id="mullion_rect_2" x="35" y="32" width="24" height="16" transform="rotate(-90 35 32)" fill="white" stroke="black" stroke-width="2"/>
</g>
<g id="ext_lines02_2">
<path id="ext2_3_2" d="M35 0L35 8" stroke="black" stroke-width="2"/>
<path id="ext2_2_2" d="M51 0L51 8" stroke="black" stroke-width="2"/>
<path id="ext2_1_2" d="M29 8L57 8" stroke="black" stroke-width="2"/>
</g>
</g>
<path id="doorSwing_2" d="M291 264C291 122.615 405.615 8 547 8" stroke="black" stroke-width="6" stroke-dasharray="20 20"/>
<g id="doorFrame_exterior_hinge_2">
<rect id="doorTrim_outside_2" width="32" height="8" transform="matrix(-1 0 0 1 581 322)" fill="#3F3F3F" stroke="black" stroke-width="2"/>
<rect id="doorTrim_inside_2" width="32" height="8" transform="matrix(-1 0 0 1 581 256)" fill="#3F3F3F" stroke="black" stroke-width="2"/>
<rect id="doorJamb_hinge_2" width="58" height="8" transform="matrix(4.37114e-08 1 1 -4.37114e-08 547 264)" fill="#3F3F3F" stroke="black" stroke-width="2"/>
</g>
<g id="doorPanel_glass_2">
<g id="ext_lines02_3">
<path id="ext2_3_3" d="M547 272L547 264" stroke="black" stroke-width="2"/>
<path id="ext2_2_3" d="M531 272L531 264" stroke="black" stroke-width="2"/>
<path id="ext2_1_3" d="M553 264L525 264" stroke="black" stroke-width="2"/>
</g>
<g id="panel_overall_2">
<rect width="256" height="16" transform="matrix(4.37114e-08 -1 -1 -4.37114e-08 547 264)" fill="white"/>
<rect width="256" height="16" transform="matrix(4.37114e-08 -1 -1 -4.37114e-08 547 264)" stroke="black" stroke-width="2"/>
<rect id="mullion_rect_3" width="24" height="16" transform="matrix(4.37114e-08 -1 -1 -4.37114e-08 547 264)" fill="white" stroke="black" stroke-width="2"/>
<rect id="glass_rect_2" width="208" height="4" transform="matrix(4.37114e-08 -1 -1 -4.37114e-08 541 240)" fill="white" stroke="black" stroke-width="2"/>
<rect id="mullion_rect_4" width="24" height="16" transform="matrix(4.37114e-08 -1 -1 -4.37114e-08 547 32)" fill="white" stroke="black" stroke-width="2"/>
</g>
<g id="ext_lines02_4">
<path id="ext2_3_4" d="M547 0L547 8" stroke="black" stroke-width="2"/>
<path id="ext2_2_4" d="M531 0L531 8" stroke="black" stroke-width="2"/>
<path id="ext2_1_4" d="M553 8L525 8" stroke="black" stroke-width="2"/>
</g>
</g>
</g>
</svg>
