<svg width="934" height="76" viewBox="0 0 934 76" fill="none" xmlns="http://www.w3.org/2000/svg">
<g id="door_exterior_sliding_108in">
<rect id="doorOpening" x="34" y="9" width="866" height="59" fill="white"/>
<rect id="doorTracks" x="35" y="9" width="864" height="52" fill="white" stroke="black" stroke-width="2"/>
<g id="doorPanel_glass">
<g id="ext_lines02">
<path id="ext2_3" d="M27 9H35" stroke="black" stroke-width="2"/>
<path id="ext2_2" d="M27 33H35" stroke="black" stroke-width="2"/>
<path id="ext2_1" d="M35 2L35 40" stroke="black" stroke-width="2"/>
</g>
<g id="panel_overall">
<rect x="35" y="9" width="304" height="24" fill="#D2D2D2"/>
<rect x="35" y="9" width="304" height="24" stroke="black" stroke-width="2"/>
<rect id="mullion_rect" x="35" y="9" width="24" height="24" fill="#3F3F3F" stroke="black" stroke-width="2"/>
<rect id="glass_rect" x="58" y="18" width="258" height="6" fill="white" stroke="black" stroke-width="2"/>
<rect id="mullion_rect_2" x="315" y="9" width="24" height="24" fill="#3F3F3F" stroke="black" stroke-width="2"/>
</g>
<g id="ext_lines02_2">
<path id="ext2_3_2" d="M347 9H339" stroke="black" stroke-width="2"/>
<path id="ext2_2_2" d="M347 33H339" stroke="black" stroke-width="2"/>
<path id="ext2_1_2" d="M339 2L339 40" stroke="black" stroke-width="2"/>
</g>
</g>
<g id="doorPanel_glass_2">
<g id="ext_lines02_3">
<path id="ext2_3_3" d="M587 9H595" stroke="black" stroke-width="2"/>
<path id="ext2_2_3" d="M587 33H595" stroke="black" stroke-width="2"/>
<path id="ext2_1_3" d="M595 2L595 40" stroke="black" stroke-width="2"/>
</g>
<g id="panel_overall_2">
<rect x="595" y="9" width="304" height="24" fill="#D2D2D2"/>
<rect x="595" y="9" width="304" height="24" stroke="black" stroke-width="2"/>
<rect id="mullion_rect_3" x="595" y="9" width="24" height="24" fill="#3F3F3F" stroke="black" stroke-width="2"/>
<rect id="glass_rect_2" x="618" y="18" width="258" height="6" fill="white" stroke="black" stroke-width="2"/>
<rect id="mullion_rect_4" x="875" y="9" width="24" height="24" fill="#3F3F3F" stroke="black" stroke-width="2"/>
</g>
<g id="ext_lines02_4">
<path id="ext2_3_4" d="M907 9H899" stroke="black" stroke-width="2"/>
<path id="ext2_2_4" d="M907 33H899" stroke="black" stroke-width="2"/>
<path id="ext2_1_4" d="M899 2L899 40" stroke="black" stroke-width="2"/>
</g>
</g>
<g id="doorPanel_glass_3">
<g id="ext_lines02_5">
<path id="ext2_3_5" d="M307 33H315" stroke="black" stroke-width="2"/>
<path id="ext2_2_5" d="M307 57H315" stroke="black" stroke-width="2"/>
<path id="ext2_1_5" d="M315 26L315 64" stroke="black" stroke-width="2"/>
</g>
<g id="panel_overall_3">
<rect x="315" y="33" width="304" height="24" fill="#D2D2D2"/>
<rect x="315" y="33" width="304" height="24" stroke="black" stroke-width="2"/>
<rect id="mullion_rect_5" x="315" y="33" width="24" height="24" fill="#3F3F3F" stroke="black" stroke-width="2"/>
<rect id="glass_rect_3" x="338" y="42" width="258" height="6" fill="white" stroke="black" stroke-width="2"/>
<rect id="mullion_rect_6" x="595" y="33" width="24" height="24" fill="#3F3F3F" stroke="black" stroke-width="2"/>
</g>
<g id="ext_lines02_6">
<path id="ext2_3_6" d="M627 33H619" stroke="black" stroke-width="2"/>
<path id="ext2_2_6" d="M627 57H619" stroke="black" stroke-width="2"/>
<path id="ext2_1_6" d="M619 26L619 64" stroke="black" stroke-width="2"/>
</g>
</g>
<g id="doorFrame_exterior_glass_hinge">
<rect id="doorTrim_outside" x="1" y="67" width="32" height="8" fill="#3F3F3F" stroke="black" stroke-width="2"/>
<rect id="doorTrim_inside" x="1" y="1" width="32" height="8" fill="#3F3F3F" stroke="black" stroke-width="2"/>
<rect id="doorJamb_hinge" x="35" y="9" width="58" height="12" transform="rotate(90 35 9)" fill="#3F3F3F" stroke="black" stroke-width="2"/>
</g>
<g id="doorFrame_exterior_glass_hinge_2">
<rect id="doorTrim_outside_2" width="32" height="8" transform="matrix(-1 0 0 1 933 67)" fill="#3F3F3F" stroke="black" stroke-width="2"/>
<rect id="doorTrim_inside_2" width="32" height="8" transform="matrix(-1 0 0 1 933 1)" fill="#3F3F3F" stroke="black" stroke-width="2"/>
<rect id="doorJamb_hinge_2" width="58" height="12" transform="matrix(4.37114e-08 1 1 -4.37114e-08 899 9)" fill="#3F3F3F" stroke="black" stroke-width="2"/>
</g>
</g>
</svg>
