<svg width="646" height="76" viewBox="0 0 646 76" fill="none" xmlns="http://www.w3.org/2000/svg">
<g id="door_exterior_sliding_72in">
<rect id="doorOpening" x="34" y="9" width="578" height="59" fill="white"/>
<rect id="doorTracks" x="35" y="9" width="576" height="52" fill="white" stroke="black" stroke-width="2"/>
<g id="doorPanel_glass">
<g id="ext_lines02">
<path id="ext2_3" d="M27 9H35" stroke="black" stroke-width="2"/>
<path id="ext2_2" d="M27 33H35" stroke="black" stroke-width="2"/>
<path id="ext2_1" d="M35 2L35 40" stroke="black" stroke-width="2"/>
</g>
<g id="panel_overall">
<rect x="35" y="9" width="300" height="24" fill="#D2D2D2"/>
<rect x="35" y="9" width="300" height="24" stroke="black" stroke-width="2"/>
<rect id="mullion_rect" x="35" y="9" width="24" height="24" fill="#3F3F3F" stroke="black" stroke-width="2"/>
<rect id="glass_rect" x="58" y="18" width="254" height="6" fill="white" stroke="black" stroke-width="2"/>
<rect id="mullion_rect_2" x="311" y="9" width="24" height="24" fill="#3F3F3F" stroke="black" stroke-width="2"/>
</g>
<g id="ext_lines02_2">
<path id="ext2_3_2" d="M343 9H335" stroke="black" stroke-width="2"/>
<path id="ext2_2_2" d="M343 33H335" stroke="black" stroke-width="2"/>
<path id="ext2_1_2" d="M335 2L335 40" stroke="black" stroke-width="2"/>
</g>
</g>
<g id="doorPanel_glass_2">
<g id="ext_lines02_3">
<path id="ext2_3_3" d="M303 33H311" stroke="black" stroke-width="2"/>
<path id="ext2_2_3" d="M303 57H311" stroke="black" stroke-width="2"/>
<path id="ext2_1_3" d="M311 26L311 64" stroke="black" stroke-width="2"/>
</g>
<g id="panel_overall_2">
<rect x="311" y="33" width="300" height="24" fill="#D2D2D2"/>
<rect x="311" y="33" width="300" height="24" stroke="black" stroke-width="2"/>
<rect id="mullion_rect_3" x="311" y="33" width="24" height="24" fill="#3F3F3F" stroke="black" stroke-width="2"/>
<rect id="glass_rect_2" x="334" y="42" width="254" height="6" fill="white" stroke="black" stroke-width="2"/>
<rect id="mullion_rect_4" x="587" y="33" width="24" height="24" fill="#3F3F3F" stroke="black" stroke-width="2"/>
</g>
<g id="ext_lines02_4">
<path id="ext2_3_4" d="M619 33H611" stroke="black" stroke-width="2"/>
<path id="ext2_2_4" d="M619 57H611" stroke="black" stroke-width="2"/>
<path id="ext2_1_4" d="M611 26L611 64" stroke="black" stroke-width="2"/>
</g>
</g>
<g id="doorFrame_exterior_glass_hinge">
<rect id="doorTrim_outside" x="1" y="67" width="32" height="8" fill="#3F3F3F" stroke="black" stroke-width="2"/>
<rect id="doorTrim_inside" x="1" y="1" width="32" height="8" fill="#3F3F3F" stroke="black" stroke-width="2"/>
<rect id="doorJamb_hinge" x="35" y="9" width="58" height="12" transform="rotate(90 35 9)" fill="#3F3F3F" stroke="black" stroke-width="2"/>
</g>
<g id="doorFrame_exterior_glass_hinge_2">
<rect id="doorTrim_outside_2" width="32" height="8" transform="matrix(-1 0 0 1 645 67)" fill="#3F3F3F" stroke="black" stroke-width="2"/>
<rect id="doorTrim_inside_2" width="32" height="8" transform="matrix(-1 0 0 1 645 1)" fill="#3F3F3F" stroke="black" stroke-width="2"/>
<rect id="doorJamb_hinge_2" width="58" height="12" transform="matrix(4.37114e-08 1 1 -4.37114e-08 611 9)" fill="#3F3F3F" stroke="black" stroke-width="2"/>
</g>
</g>
</svg>
