<svg width="310" height="293" viewBox="0 0 310 293" fill="none" xmlns="http://www.w3.org/2000/svg">
<g id="door_interiorSingleSwing_30in">
<rect id="doorOpening" x="34.25" y="247.25" width="241.5" height="37.5" fill="white" stroke="#8E8E8E" stroke-width="0.5"/>
<path id="doorSwing" d="M275 248C275 115.452 167.548 8 35 8" stroke="black" stroke-width="6" stroke-dasharray="20 20"/>
<g id="doorFrame_interior_hinge">
<rect id="doorTrim_outside" x="1" y="284" width="32" height="8" fill="#3F3F3F" stroke="black" stroke-width="2"/>
<rect id="doorTrim_inside" x="1" y="240" width="32" height="8" fill="#3F3F3F" stroke="black" stroke-width="2"/>
<rect id="doorJamb_hinge" x="35" y="248" width="36" height="8" transform="rotate(90 35 248)" fill="#3F3F3F" stroke="black" stroke-width="2"/>
</g>
<g id="doorFrame_interior_latch">
<rect id="doorTrim_outside_2" x="277" y="284" width="32" height="8" fill="#3F3F3F" stroke="black" stroke-width="2"/>
<rect id="doorTrim_inside_2" x="277" y="240" width="32" height="8" fill="#3F3F3F" stroke="black" stroke-width="2"/>
<rect id="doorJamb_hinge_2" x="283" y="248" width="36" height="8" transform="rotate(90 283 248)" fill="#3F3F3F" stroke="black" stroke-width="2"/>
</g>
<g id="doorPanel">
<g id="ext_lines02">
<path id="ext2_3" d="M35 256L35 248" stroke="black" stroke-width="2"/>
<path id="ext2_2" d="M46 256L46 248" stroke="black" stroke-width="2"/>
<path id="ext2_1" d="M28 248L53 248" stroke="black" stroke-width="2"/>
</g>
<rect id="panel_rect" x="35" y="248" width="240" height="11" transform="rotate(-90 35 248)" fill="black" stroke="black" stroke-width="2"/>
<g id="ext_lines01">
<path id="ext1_3" d="M35 8L35 -3.57628e-07" stroke="black" stroke-width="2"/>
<path id="ext1_2" d="M46 8L46 -1.19209e-07" stroke="black" stroke-width="2"/>
<path id="ext1_1" d="M28 8L53 8" stroke="black" stroke-width="2"/>
</g>
</g>
</g>
</svg>
