<svg width="1222" height="76" viewBox="0 0 1222 76" fill="none" xmlns="http://www.w3.org/2000/svg">
<g id="door_exterior_sliding_144in">
<rect id="doorOpening" x="34" y="9" width="1154" height="59" fill="white"/>
<rect id="doorTracks" x="35" y="9" width="1152" height="52" fill="white" stroke="black" stroke-width="2"/>
<g id="doorPanel_glass">
<g id="ext_lines02">
<path id="ext2_3" d="M27 57H35" stroke="black" stroke-width="2"/>
<path id="ext2_2" d="M27 33H35" stroke="black" stroke-width="2"/>
<path id="ext2_1" d="M35 64L35 26" stroke="black" stroke-width="2"/>
</g>
<g id="panel_overall">
<rect width="300" height="24" transform="matrix(1 0 0 -1 35 57)" fill="#D2D2D2"/>
<rect width="300" height="24" transform="matrix(1 0 0 -1 35 57)" stroke="black" stroke-width="2"/>
<rect id="mullion_rect" width="24" height="24" transform="matrix(1 0 0 -1 35 57)" fill="#3F3F3F" stroke="black" stroke-width="2"/>
<rect id="glass_rect" x="-1" y="1" width="254" height="6" transform="matrix(1 0 0 -1 59 49)" fill="white" stroke="black" stroke-width="2"/>
<rect id="mullion_rect_2" width="24" height="24" transform="matrix(1 0 0 -1 311 57)" fill="#3F3F3F" stroke="black" stroke-width="2"/>
</g>
<g id="ext_lines02_2">
<path id="ext2_3_2" d="M343 57H335" stroke="black" stroke-width="2"/>
<path id="ext2_2_2" d="M343 33H335" stroke="black" stroke-width="2"/>
<path id="ext2_1_2" d="M335 64L335 26" stroke="black" stroke-width="2"/>
</g>
</g>
<g id="doorPanel_glass_2">
<g id="ext_lines02_3">
<path id="ext2_3_3" d="M303 33H311" stroke="black" stroke-width="2"/>
<path id="ext2_2_3" d="M303 9H311" stroke="black" stroke-width="2"/>
<path id="ext2_1_3" d="M311 40L311 2" stroke="black" stroke-width="2"/>
</g>
<g id="panel_overall_2">
<rect width="300" height="24" transform="matrix(1 0 0 -1 311 33)" fill="#D2D2D2"/>
<rect width="300" height="24" transform="matrix(1 0 0 -1 311 33)" stroke="black" stroke-width="2"/>
<rect id="mullion_rect_3" width="24" height="24" transform="matrix(1 0 0 -1 311 33)" fill="#3F3F3F" stroke="black" stroke-width="2"/>
<rect id="glass_rect_2" x="-1" y="1" width="254" height="6" transform="matrix(1 0 0 -1 335 25)" fill="white" stroke="black" stroke-width="2"/>
<rect id="mullion_rect_4" width="24" height="24" transform="matrix(1 0 0 -1 587 33)" fill="#3F3F3F" stroke="black" stroke-width="2"/>
</g>
<g id="ext_lines02_4">
<path id="ext2_3_4" d="M619 33H611" stroke="black" stroke-width="2"/>
<path id="ext2_2_4" d="M619 9H611" stroke="black" stroke-width="2"/>
<path id="ext2_1_4" d="M611 40L611 2" stroke="black" stroke-width="2"/>
</g>
</g>
<g id="doorPanel_glass_3">
<g id="ext_lines02_5">
<path id="ext2_3_5" d="M603 9H611" stroke="black" stroke-width="2"/>
<path id="ext2_2_5" d="M603 33H611" stroke="black" stroke-width="2"/>
<path id="ext2_1_5" d="M611 2L611 40" stroke="black" stroke-width="2"/>
</g>
<g id="panel_overall_3">
<rect x="611" y="9" width="300" height="24" fill="#D2D2D2"/>
<rect x="611" y="9" width="300" height="24" stroke="black" stroke-width="2"/>
<rect id="mullion_rect_5" x="611" y="9" width="24" height="24" fill="#3F3F3F" stroke="black" stroke-width="2"/>
<rect id="glass_rect_3" x="634" y="18" width="254" height="6" fill="white" stroke="black" stroke-width="2"/>
<rect id="mullion_rect_6" x="887" y="9" width="24" height="24" fill="#3F3F3F" stroke="black" stroke-width="2"/>
</g>
<g id="ext_lines02_6">
<path id="ext2_3_6" d="M919 9H911" stroke="black" stroke-width="2"/>
<path id="ext2_2_6" d="M919 33H911" stroke="black" stroke-width="2"/>
<path id="ext2_1_6" d="M911 2L911 40" stroke="black" stroke-width="2"/>
</g>
</g>
<g id="doorPanel_glass_4">
<g id="ext_lines02_7">
<path id="ext2_3_7" d="M879 33H887" stroke="black" stroke-width="2"/>
<path id="ext2_2_7" d="M879 57H887" stroke="black" stroke-width="2"/>
<path id="ext2_1_7" d="M887 26L887 64" stroke="black" stroke-width="2"/>
</g>
<g id="panel_overall_4">
<rect x="887" y="33" width="300" height="24" fill="#D2D2D2"/>
<rect x="887" y="33" width="300" height="24" stroke="black" stroke-width="2"/>
<rect id="mullion_rect_7" x="887" y="33" width="24" height="24" fill="#3F3F3F" stroke="black" stroke-width="2"/>
<rect id="glass_rect_4" x="910" y="42" width="254" height="6" fill="white" stroke="black" stroke-width="2"/>
<rect id="mullion_rect_8" x="1163" y="33" width="24" height="24" fill="#3F3F3F" stroke="black" stroke-width="2"/>
</g>
<g id="ext_lines02_8">
<path id="ext2_3_8" d="M1195 33H1187" stroke="black" stroke-width="2"/>
<path id="ext2_2_8" d="M1195 57H1187" stroke="black" stroke-width="2"/>
<path id="ext2_1_8" d="M1187 26L1187 64" stroke="black" stroke-width="2"/>
</g>
</g>
<g id="doorFrame_exterior_glass_hinge">
<rect id="doorTrim_outside" x="1" y="67" width="32" height="8" fill="#3F3F3F" stroke="black" stroke-width="2"/>
<rect id="doorTrim_inside" x="1" y="1" width="32" height="8" fill="#3F3F3F" stroke="black" stroke-width="2"/>
<rect id="doorJamb_hinge" x="35" y="9" width="58" height="12" transform="rotate(90 35 9)" fill="#3F3F3F" stroke="black" stroke-width="2"/>
</g>
<g id="doorFrame_exterior_glass_hinge_2">
<rect id="doorTrim_outside_2" width="32" height="8" transform="matrix(-1 0 0 1 1221 67)" fill="#3F3F3F" stroke="black" stroke-width="2"/>
<rect id="doorTrim_inside_2" width="32" height="8" transform="matrix(-1 0 0 1 1221 1)" fill="#3F3F3F" stroke="black" stroke-width="2"/>
<rect id="doorJamb_hinge_2" width="58" height="12" transform="matrix(4.37114e-08 1 1 -4.37114e-08 1187 9)" fill="#3F3F3F" stroke="black" stroke-width="2"/>
</g>
</g>
</svg>
