<svg width="230" height="95" viewBox="0 0 230 95" fill="none" xmlns="http://www.w3.org/2000/svg">
<g id="door_interiorBifold_20in">
<rect id="doorOpening" x="34.25" y="49.2578" width="161.5" height="37.5" fill="white" stroke="#8E8E8E" stroke-width="0.5"/>
<g id="doorFrame_interior_hinge">
<rect id="doorTrim_outside" x="1" y="86.0078" width="32" height="8" fill="#3F3F3F" stroke="black" stroke-width="2"/>
<rect id="doorTrim_inside" x="1" y="42.0078" width="32" height="8" fill="#3F3F3F" stroke="black" stroke-width="2"/>
<rect id="doorJamb_hinge" x="35" y="50.0078" width="36" height="8" transform="rotate(90 35 50.0078)" fill="#3F3F3F" stroke="black" stroke-width="2"/>
</g>
<g id="doorFrame_interior_hinge_2">
<rect id="doorTrim_outside_2" width="32" height="8" transform="matrix(-1 0 0 1 229 86.0059)" fill="#3F3F3F" stroke="black" stroke-width="2"/>
<rect id="doorTrim_inside_2" width="32" height="8" transform="matrix(-1 0 0 1 229 42.0059)" fill="#3F3F3F" stroke="black" stroke-width="2"/>
<rect id="doorJamb_hinge_2" width="36" height="8" transform="matrix(4.37114e-08 1 1 -4.37114e-08 195 50.0059)" fill="#3F3F3F" stroke="black" stroke-width="2"/>
</g>
<g id="doorPanel">
<g id="ext_lines02">
<path id="ext2_3" d="M28.5 54.0645L35.4282 50.0645" stroke="black" stroke-width="2"/>
<path id="ext2_2" d="M34 63.5898L40.9282 59.5898" stroke="black" stroke-width="2"/>
<path id="ext2_1" d="M31.9277 44.002L44.4277 65.6526" stroke="black" stroke-width="2"/>
</g>
<rect id="panel_rect" x="35.4277" y="50.0645" width="80" height="11" transform="rotate(-30 35.4277 50.0645)" fill="black" stroke="black" stroke-width="2"/>
<g id="ext_lines01">
<path id="ext1_3" d="M104.711 10.0645L111.639 6.06445" stroke="black" stroke-width="2"/>
<path id="ext1_2" d="M110.211 19.5898L117.139 15.5898" stroke="black" stroke-width="2"/>
<path id="ext1_1" d="M101.211 4.00195L113.711 25.6526" stroke="black" stroke-width="2"/>
</g>
</g>
<g id="doorPanel_2">
<g id="ext_lines02_2">
<path id="ext2_3_2" d="M192.139 54.0645L185.21 50.0645" stroke="black" stroke-width="2"/>
<path id="ext2_2_2" d="M186.639 63.5898L179.71 59.5898" stroke="black" stroke-width="2"/>
<path id="ext2_1_2" d="M188.711 44.002L176.211 65.6526" stroke="black" stroke-width="2"/>
</g>
<rect id="panel_rect_2" width="80" height="11" transform="matrix(-0.866025 -0.5 -0.5 0.866025 185.211 50.0645)" fill="black" stroke="black" stroke-width="2"/>
<g id="ext_lines01_2">
<path id="ext1_3_2" d="M115.928 10.0645L109 6.06445" stroke="black" stroke-width="2"/>
<path id="ext1_2_2" d="M110.428 19.5898L103.5 15.5898" stroke="black" stroke-width="2"/>
<path id="ext1_1_2" d="M119.428 4.00195L106.928 25.6526" stroke="black" stroke-width="2"/>
</g>
</g>
</g>
</svg>
