<svg width="406" height="140" viewBox="0 0 406 140" fill="none" xmlns="http://www.w3.org/2000/svg">
<g id="door_interiorBifold_42in">
<rect id="doorOpening" x="34.25" y="93.2656" width="337.5" height="37.5" fill="white" stroke="#8E8E8E" stroke-width="0.5"/>
<g id="doorFrame_interior_hinge">
<rect id="doorTrim_outside" x="1" y="130.062" width="32" height="8" fill="#3F3F3F" stroke="black" stroke-width="2"/>
<rect id="doorTrim_inside" x="1" y="86.0625" width="32" height="8" fill="#3F3F3F" stroke="black" stroke-width="2"/>
<rect id="doorJamb_hinge" x="35" y="94.0625" width="36" height="8" transform="rotate(90 35 94.0625)" fill="#3F3F3F" stroke="black" stroke-width="2"/>
</g>
<g id="doorFrame_interior_hinge_2">
<rect id="doorTrim_outside_2" width="32" height="8" transform="matrix(-1 0 0 1 405 130.064)" fill="#3F3F3F" stroke="black" stroke-width="2"/>
<rect id="doorTrim_inside_2" width="32" height="8" transform="matrix(-1 0 0 1 405 86.0645)" fill="#3F3F3F" stroke="black" stroke-width="2"/>
<rect id="doorJamb_hinge_2" width="36" height="8" transform="matrix(4.37114e-08 1 1 -4.37114e-08 371 94.0645)" fill="#3F3F3F" stroke="black" stroke-width="2"/>
</g>
<g id="doorPanel">
<g id="ext_lines02">
<path id="ext2_3" d="M28.5 98.0645L35.4282 94.0645" stroke="black" stroke-width="2"/>
<path id="ext2_2" d="M34 107.59L40.9282 103.59" stroke="black" stroke-width="2"/>
<path id="ext2_1" d="M31.9277 88.002L44.4277 109.653" stroke="black" stroke-width="2"/>
</g>
<rect id="panel_rect" x="35.4277" y="94.0645" width="168" height="11" transform="rotate(-30 35.4277 94.0645)" fill="black" stroke="black" stroke-width="2"/>
<g id="ext_lines01">
<path id="ext1_3" d="M180.92 10.0645L187.848 6.06445" stroke="black" stroke-width="2"/>
<path id="ext1_2" d="M186.42 19.5898L193.348 15.5898" stroke="black" stroke-width="2"/>
<path id="ext1_1" d="M177.42 4.00195L189.92 25.6526" stroke="black" stroke-width="2"/>
</g>
</g>
<g id="doorPanel_2">
<g id="ext_lines02_2">
<path id="ext2_3_2" d="M185 6.0625L191.928 10.0625" stroke="black" stroke-width="2"/>
<path id="ext2_2_2" d="M179.5 15.5879L186.428 19.5879" stroke="black" stroke-width="2"/>
<path id="ext2_1_2" d="M195.428 4L182.928 25.6506" stroke="black" stroke-width="2"/>
</g>
<rect id="panel_rect_2" x="191.928" y="10.0625" width="168" height="11" transform="rotate(30 191.928 10.0625)" fill="black" stroke="black" stroke-width="2"/>
<g id="ext_lines01_2">
<path id="ext1_3_2" d="M337.42 94.0625L344.348 98.0625" stroke="black" stroke-width="2"/>
<path id="ext1_2_2" d="M331.92 103.588L338.848 107.588" stroke="black" stroke-width="2"/>
<path id="ext1_1_2" d="M340.92 88L328.42 109.651" stroke="black" stroke-width="2"/>
</g>
</g>
</g>
</svg>
