<svg width="606" height="364" viewBox="0 0 606 364" fill="none" xmlns="http://www.w3.org/2000/svg">
<g id="door_exteriorSingleSwing_36in+14inSLx2_67in">
<rect id="doorOpening" x="35" y="297" width="536" height="58" fill="white" stroke="#8E8E8E" stroke-width="2"/>
<g id="sidelitePanel">
<rect x="459" y="306" width="112" height="14" fill="white"/>
<rect x="459" y="306" width="112" height="14" stroke="black" stroke-width="2"/>
<rect id="sideliteFrame01" x="459" y="306" width="24" height="14" fill="white" stroke="black" stroke-width="2"/>
<rect id="sideliteGlass" x="483" y="311" width="64" height="4" fill="white" stroke="black" stroke-width="2"/>
<rect id="sideliteFrame02" x="547" y="306" width="24" height="14" fill="white" stroke="black" stroke-width="2"/>
</g>
<g id="sidelitePanel_2">
<rect x="35" y="306" width="112" height="14" fill="white"/>
<rect x="35" y="306" width="112" height="14" stroke="black" stroke-width="2"/>
<rect id="sideliteFrame01_2" x="35" y="306" width="24" height="14" fill="white" stroke="black" stroke-width="2"/>
<rect id="sideliteGlass_2" x="59" y="311" width="64" height="4" fill="white" stroke="black" stroke-width="2"/>
<rect id="sideliteFrame02_2" x="123" y="306" width="24" height="14" fill="white" stroke="black" stroke-width="2"/>
</g>
<rect id="sideliteMullion" x="447" y="297" width="12" height="32" fill="#3F3F3F" stroke="black" stroke-width="2"/>
<rect id="sideliteMullion_2" x="147" y="297" width="12" height="32" fill="#3F3F3F" stroke="black" stroke-width="2"/>
<path id="doorSwing" d="M447 297C447 137.942 318.058 9 159 9" stroke="black" stroke-width="6" stroke-dasharray="20 20"/>
<g id="doorFrame_exterior_latch">
<rect id="doorTrim_outside" x="573" y="355" width="32" height="8" fill="#3F3F3F" stroke="black" stroke-width="2"/>
<rect id="doorTrim_inside" x="573" y="289" width="32" height="8" fill="#3F3F3F" stroke="black" stroke-width="2"/>
<rect id="doorJamb_hinge" x="579" y="297" width="58" height="8" transform="rotate(90 579 297)" fill="#3F3F3F" stroke="black" stroke-width="2"/>
</g>
<g id="doorFrame_exterior_hinge">
<rect id="doorTrim_outside_2" x="1" y="355" width="32" height="8" fill="#3F3F3F" stroke="black" stroke-width="2"/>
<rect id="doorTrim_inside_2" x="1" y="289" width="32" height="8" fill="#3F3F3F" stroke="black" stroke-width="2"/>
<rect id="doorJamb_hinge_2" x="35" y="297" width="58" height="8" transform="rotate(90 35 297)" fill="#3F3F3F" stroke="black" stroke-width="2"/>
</g>
<g id="doorPanel">
<g id="ext_lines02">
<path id="ext2_3" d="M159 305L159 297" stroke="black" stroke-width="2"/>
<path id="ext2_2" d="M173 305L173 297" stroke="black" stroke-width="2"/>
<path id="ext2_1" d="M152 297L180 297" stroke="black" stroke-width="2"/>
</g>
<rect id="panel_rect" x="159" y="297" width="288" height="14" transform="rotate(-90 159 297)" fill="black" stroke="black" stroke-width="2"/>
<g id="ext_lines01">
<path id="ext1_3" d="M159 9L159 1" stroke="black" stroke-width="2"/>
<path id="ext1_2" d="M173 9L173 1" stroke="black" stroke-width="2"/>
<path id="ext1_1" d="M152 9L180 9" stroke="black" stroke-width="2"/>
</g>
</g>
</g>
</svg>
