<svg width="646" height="341" viewBox="0 0 646 341" fill="none" xmlns="http://www.w3.org/2000/svg">
<g id="door_interiorDoubleSwing_72in">
<rect id="doorOpening" x="34.25" y="295.25" width="577.5" height="37.5" fill="white" stroke="#8E8E8E" stroke-width="0.5"/>
<path id="doorSwing" d="M323 296C323 136.942 194.058 8 35 8" stroke="black" stroke-width="6" stroke-dasharray="20 20"/>
<g id="doorFrame_interior_hinge">
<rect id="doorTrim_outside" x="1" y="332" width="32" height="8" fill="#3F3F3F" stroke="black" stroke-width="2"/>
<rect id="doorTrim_inside" x="1" y="288" width="32" height="8" fill="#3F3F3F" stroke="black" stroke-width="2"/>
<rect id="doorJamb_hinge" x="35" y="296" width="36" height="8" transform="rotate(90 35 296)" fill="#3F3F3F" stroke="black" stroke-width="2"/>
</g>
<g id="doorPanel">
<g id="ext_lines02">
<path id="ext2_3" d="M35 304L35 296" stroke="black" stroke-width="2"/>
<path id="ext2_2" d="M46 304L46 296" stroke="black" stroke-width="2"/>
<path id="ext2_1" d="M28 296L53 296" stroke="black" stroke-width="2"/>
</g>
<rect id="panel_rect" x="35" y="296" width="288" height="11" transform="rotate(-90 35 296)" fill="black" stroke="black" stroke-width="2"/>
<g id="ext_lines01">
<path id="ext1_3" d="M35 8L35 -3.57628e-07" stroke="black" stroke-width="2"/>
<path id="ext1_2" d="M46 8L46 -1.19209e-07" stroke="black" stroke-width="2"/>
<path id="ext1_1" d="M28 8L53 8" stroke="black" stroke-width="2"/>
</g>
</g>
<path id="doorSwing_2" d="M323 296C323 136.942 451.942 8 611 8" stroke="black" stroke-width="6" stroke-dasharray="20 20"/>
<g id="doorFrame_interior_hinge_2">
<rect id="doorTrim_outside_2" width="32" height="8" transform="matrix(-1 0 0 1 645 332)" fill="#3F3F3F" stroke="black" stroke-width="2"/>
<rect id="doorTrim_inside_2" width="32" height="8" transform="matrix(-1 0 0 1 645 288)" fill="#3F3F3F" stroke="black" stroke-width="2"/>
<rect id="doorJamb_hinge_2" width="36" height="8" transform="matrix(4.37114e-08 1 1 -4.37114e-08 611 296)" fill="#3F3F3F" stroke="black" stroke-width="2"/>
</g>
<g id="doorPanel_2">
<g id="ext_lines02_2">
<path id="ext2_3_2" d="M611 304L611 296" stroke="black" stroke-width="2"/>
<path id="ext2_2_2" d="M600 304L600 296" stroke="black" stroke-width="2"/>
<path id="ext2_1_2" d="M618 296L593 296" stroke="black" stroke-width="2"/>
</g>
<rect id="panel_rect_2" width="288" height="11" transform="matrix(4.37114e-08 -1 -1 -4.37114e-08 611 296)" fill="black" stroke="black" stroke-width="2"/>
<g id="ext_lines01_2">
<path id="ext1_3_2" d="M611 8L611 -3.57628e-07" stroke="black" stroke-width="2"/>
<path id="ext1_2_2" d="M600 8L600 -1.19209e-07" stroke="black" stroke-width="2"/>
<path id="ext1_1_2" d="M618 8L593 8" stroke="black" stroke-width="2"/>
</g>
</g>
</g>
</svg>
