<svg width="326" height="183" viewBox="0 0 326 183" fill="none" xmlns="http://www.w3.org/2000/svg">
<g id="door_interiorSingleSwing_32in_halfswing">
<rect id="doorOpening" x="34.25" y="137.25" width="257.5" height="37.5" fill="white" stroke="#8E8E8E" stroke-width="0.5"/>
<path id="doorSwing" d="M291.001 138C291.001 93.4207 279.606 51.5029 259.57 15" stroke="black" stroke-width="6" stroke-dasharray="20 20"/>
<g id="doorFrame_interior_hinge">
<rect id="doorTrim_outside" x="1" y="174" width="32" height="8" fill="#3F3F3F" stroke="black" stroke-width="2"/>
<rect id="doorTrim_inside" x="1" y="130" width="32" height="8" fill="#3F3F3F" stroke="black" stroke-width="2"/>
<rect id="doorJamb_hinge" x="35" y="138" width="36" height="8" transform="rotate(90 35 138)" fill="#3F3F3F" stroke="black" stroke-width="2"/>
</g>
<g id="doorFrame_interior_latch">
<rect id="doorTrim_outside_2" x="293" y="174" width="32" height="8" fill="#3F3F3F" stroke="black" stroke-width="2"/>
<rect id="doorTrim_inside_2" x="293" y="130" width="32" height="8" fill="#3F3F3F" stroke="black" stroke-width="2"/>
<rect id="doorJamb_hinge_2" x="299" y="138" width="36" height="8" transform="rotate(90 299 138)" fill="#3F3F3F" stroke="black" stroke-width="2"/>
</g>
<g id="doorPanel">
<g id="ext_lines02">
<path id="ext2_3" d="M28.5 142.064L35.4282 138.064" stroke="black" stroke-width="2"/>
<path id="ext2_2" d="M34 151.59L40.9282 147.59" stroke="black" stroke-width="2"/>
<path id="ext2_1" d="M31.9277 132.002L44.4277 153.653" stroke="black" stroke-width="2"/>
</g>
<rect id="panel_rect" x="35.4277" y="138.064" width="256" height="11" transform="rotate(-30 35.4277 138.064)" fill="black" stroke="black" stroke-width="2"/>
<g id="ext_lines01">
<path id="ext1_3" d="M257.131 10.0645L264.059 6.06445" stroke="black" stroke-width="2"/>
<path id="ext1_2" d="M262.631 19.5898L269.559 15.5898" stroke="black" stroke-width="2"/>
<path id="ext1_1" d="M253.631 4.00195L266.131 25.6526" stroke="black" stroke-width="2"/>
</g>
</g>
</g>
</svg>
