<svg width="454" height="103" viewBox="0 0 454 103" fill="none" xmlns="http://www.w3.org/2000/svg">
<g id="door_interiorBifold_48in">
<rect id="doorOpening" x="34.25" y="57.25" width="385.5" height="37.5" fill="white" stroke="#8E8E8E" stroke-width="0.5"/>
<g id="doorFrame_interior_hinge">
<rect id="doorTrim_outside" x="1" y="94.0098" width="32" height="8" fill="#3F3F3F" stroke="black" stroke-width="2"/>
<rect id="doorTrim_inside" x="1" y="50.0098" width="32" height="8" fill="#3F3F3F" stroke="black" stroke-width="2"/>
<rect id="doorJamb_hinge" x="35" y="58.0098" width="36" height="8" transform="rotate(90 35 58.0098)" fill="#3F3F3F" stroke="black" stroke-width="2"/>
</g>
<g id="doorFrame_interior_hinge_2">
<rect id="doorTrim_outside_2" width="32" height="8" transform="matrix(-1 0 0 1 453 94.0098)" fill="#3F3F3F" stroke="black" stroke-width="2"/>
<rect id="doorTrim_inside_2" width="32" height="8" transform="matrix(-1 0 0 1 453 50.0098)" fill="#3F3F3F" stroke="black" stroke-width="2"/>
<rect id="doorJamb_hinge_2" width="36" height="8" transform="matrix(4.37114e-08 1 1 -4.37114e-08 419 58.0098)" fill="#3F3F3F" stroke="black" stroke-width="2"/>
</g>
<g id="doorPanel">
<g id="ext_lines02">
<path id="ext2_3" d="M28.5 62.0723L35.4282 58.0723" stroke="black" stroke-width="2"/>
<path id="ext2_2" d="M34 71.5977L40.9282 67.5977" stroke="black" stroke-width="2"/>
<path id="ext2_1" d="M31.9277 52.0098L44.4277 73.6604" stroke="black" stroke-width="2"/>
</g>
<rect id="panel_rect" x="35.4277" y="58.0723" width="96" height="11" transform="rotate(-30 35.4277 58.0723)" fill="black" stroke="black" stroke-width="2"/>
<g id="ext_lines01">
<path id="ext1_3" d="M118.566 10.0723L125.495 6.07227" stroke="black" stroke-width="2"/>
<path id="ext1_2" d="M124.066 19.5977L130.995 15.5977" stroke="black" stroke-width="2"/>
<path id="ext1_1" d="M115.066 4.00977L127.566 25.6604" stroke="black" stroke-width="2"/>
</g>
</g>
<g id="doorPanel_2">
<g id="ext_lines02_2">
<path id="ext2_3_2" d="M219.996 62.0723L213.068 58.0723" stroke="black" stroke-width="2"/>
<path id="ext2_2_2" d="M214.496 71.5977L207.568 67.5977" stroke="black" stroke-width="2"/>
<path id="ext2_1_2" d="M216.568 52.0098L204.068 73.6604" stroke="black" stroke-width="2"/>
</g>
<rect id="panel_rect_2" width="96" height="11" transform="matrix(-0.866025 -0.5 -0.5 0.866025 213.068 58.0723)" fill="black" stroke="black" stroke-width="2"/>
<g id="ext_lines01_2">
<path id="ext1_3_2" d="M129.93 10.0723L123.001 6.07227" stroke="black" stroke-width="2"/>
<path id="ext1_2_2" d="M124.43 19.5977L117.501 15.5977" stroke="black" stroke-width="2"/>
<path id="ext1_1_2" d="M133.43 4.00977L120.93 25.6604" stroke="black" stroke-width="2"/>
</g>
</g>
<g id="doorPanel_3">
<g id="ext_lines02_3">
<path id="ext2_3_3" d="M424.996 62.0645L418.068 58.0645" stroke="black" stroke-width="2"/>
<path id="ext2_2_3" d="M419.496 71.5898L412.568 67.5898" stroke="black" stroke-width="2"/>
<path id="ext2_1_3" d="M421.568 52.002L409.068 73.6526" stroke="black" stroke-width="2"/>
</g>
<rect id="panel_rect_3" width="96" height="11" transform="matrix(-0.866025 -0.5 -0.5 0.866025 418.068 58.0645)" fill="black" stroke="black" stroke-width="2"/>
<g id="ext_lines01_3">
<path id="ext1_3_3" d="M334.93 10.0645L328.001 6.06445" stroke="black" stroke-width="2"/>
<path id="ext1_2_3" d="M329.43 19.5898L322.501 15.5898" stroke="black" stroke-width="2"/>
<path id="ext1_1_3" d="M338.43 4.00195L325.93 25.6526" stroke="black" stroke-width="2"/>
</g>
</g>
<g id="doorPanel_4">
<g id="ext_lines02_4">
<path id="ext2_3_4" d="M233.5 62.0645L240.428 58.0645" stroke="black" stroke-width="2"/>
<path id="ext2_2_4" d="M239 71.5898L245.928 67.5898" stroke="black" stroke-width="2"/>
<path id="ext2_1_4" d="M236.928 52.002L249.428 73.6526" stroke="black" stroke-width="2"/>
</g>
<rect id="panel_rect_4" x="240.428" y="58.0645" width="96" height="11" transform="rotate(-30 240.428 58.0645)" fill="black" stroke="black" stroke-width="2"/>
<g id="ext_lines01_4">
<path id="ext1_3_4" d="M323.566 10.0645L330.495 6.06445" stroke="black" stroke-width="2"/>
<path id="ext1_2_4" d="M329.066 19.5898L335.995 15.5898" stroke="black" stroke-width="2"/>
<path id="ext1_1_4" d="M320.066 4.00195L332.566 25.6526" stroke="black" stroke-width="2"/>
</g>
</g>
</g>
</svg>
