<svg width="326" height="332" viewBox="0 0 326 332" fill="none" xmlns="http://www.w3.org/2000/svg">
<g id="door_exteriorSingleSwing_32in">
<rect id="doorOpening" x="35" y="265" width="256" height="58" fill="white" stroke="#8E8E8E" stroke-width="2"/>
<path id="doorSwing" d="M291 265C291 123.615 176.385 9 35 9" stroke="black" stroke-width="6" stroke-dasharray="20 20"/>
<g id="doorFrame_exterior_latch">
<rect id="doorTrim_outside" x="293" y="323" width="32" height="8" fill="#3F3F3F" stroke="black" stroke-width="2"/>
<rect id="doorTrim_inside" x="293" y="257" width="32" height="8" fill="#3F3F3F" stroke="black" stroke-width="2"/>
<rect id="doorJamb_hinge" x="299" y="265" width="58" height="8" transform="rotate(90 299 265)" fill="#3F3F3F" stroke="black" stroke-width="2"/>
</g>
<g id="doorFrame_exterior_hinge">
<rect id="doorTrim_outside_2" x="1" y="323" width="32" height="8" fill="#3F3F3F" stroke="black" stroke-width="2"/>
<rect id="doorTrim_inside_2" x="1" y="257" width="32" height="8" fill="#3F3F3F" stroke="black" stroke-width="2"/>
<rect id="doorJamb_hinge_2" x="35" y="265" width="58" height="8" transform="rotate(90 35 265)" fill="#3F3F3F" stroke="black" stroke-width="2"/>
</g>
<g id="doorPanel">
<g id="ext_lines02">
<path id="ext2_3" d="M35 273L35 265" stroke="black" stroke-width="2"/>
<path id="ext2_2" d="M49 273L49 265" stroke="black" stroke-width="2"/>
<path id="ext2_1" d="M28 265L56 265" stroke="black" stroke-width="2"/>
</g>
<rect id="panel_rect" x="35" y="265" width="256" height="14" transform="rotate(-90 35 265)" fill="black" stroke="black" stroke-width="2"/>
<g id="ext_lines01">
<path id="ext1_3" d="M35 9L35 1" stroke="black" stroke-width="2"/>
<path id="ext1_2" d="M49 9L49 1" stroke="black" stroke-width="2"/>
<path id="ext1_1" d="M28 9L56 9" stroke="black" stroke-width="2"/>
</g>
</g>
</g>
</svg>
