<svg width="358" height="363" viewBox="0 0 358 363" fill="none" xmlns="http://www.w3.org/2000/svg">
<g id="door_exteriorSingleSwing_Glass_36in">
<rect id="doorOpening" x="35" y="296" width="288" height="58" fill="white" stroke="#8E8E8E" stroke-width="2"/>
<path id="doorSwing" d="M323 296C323 136.942 194.058 8 35 8" stroke="black" stroke-width="6" stroke-dasharray="20 20"/>
<g id="doorFrame_exterior_latch">
<rect id="doorTrim_outside" x="325" y="354" width="32" height="8" fill="#3F3F3F" stroke="black" stroke-width="2"/>
<rect id="doorTrim_inside" x="325" y="288" width="32" height="8" fill="#3F3F3F" stroke="black" stroke-width="2"/>
<rect id="doorJamb_hinge" x="331" y="296" width="58" height="8" transform="rotate(90 331 296)" fill="#3F3F3F" stroke="black" stroke-width="2"/>
</g>
<g id="doorFrame_exterior_hinge">
<rect id="doorTrim_outside_2" x="1" y="354" width="32" height="8" fill="#3F3F3F" stroke="black" stroke-width="2"/>
<rect id="doorTrim_inside_2" x="1" y="288" width="32" height="8" fill="#3F3F3F" stroke="black" stroke-width="2"/>
<rect id="doorJamb_hinge_2" x="35" y="296" width="58" height="8" transform="rotate(90 35 296)" fill="#3F3F3F" stroke="black" stroke-width="2"/>
</g>
<g id="doorPanel_glass">
<g id="ext_lines02">
<path id="ext2_3" d="M35 304L35 296" stroke="black" stroke-width="2"/>
<path id="ext2_2" d="M51 304L51 296" stroke="black" stroke-width="2"/>
<path id="ext2_1" d="M29 296L57 296" stroke="black" stroke-width="2"/>
</g>
<g id="panel_overall">
<rect x="35" y="296" width="288" height="16" transform="rotate(-90 35 296)" fill="white"/>
<rect x="35" y="296" width="288" height="16" transform="rotate(-90 35 296)" stroke="black" stroke-width="2"/>
<rect id="mullion_rect" x="35" y="296" width="24" height="16" transform="rotate(-90 35 296)" fill="white" stroke="black" stroke-width="2"/>
<rect id="glass_rect" x="41" y="272" width="240" height="4" transform="rotate(-90 41 272)" fill="white" stroke="black" stroke-width="2"/>
<rect id="mullion_rect_2" x="35" y="32" width="24" height="16" transform="rotate(-90 35 32)" fill="white" stroke="black" stroke-width="2"/>
</g>
<g id="ext_lines02_2">
<path id="ext2_3_2" d="M35 0L35 8" stroke="black" stroke-width="2"/>
<path id="ext2_2_2" d="M51 0L51 8" stroke="black" stroke-width="2"/>
<path id="ext2_1_2" d="M29 8L57 8" stroke="black" stroke-width="2"/>
</g>
</g>
</g>
</svg>
