<svg width="786" height="60" viewBox="0 0 786 60" fill="none" xmlns="http://www.w3.org/2000/svg">
<g id="window_mulled_casement_30x3_98in">
<rect x="1" y="1" width="784" height="58" fill="white"/>
<rect x="1" y="1" width="784" height="58" stroke="black" stroke-width="2"/>
<rect id="windowFrame01" x="1" y="1" width="10" height="58" fill="white" stroke="black" stroke-width="2"/>
<g id="windowContainer">
<g id="windowPanel">
<rect x="11" y="5" width="220" height="32" stroke="black" stroke-width="2"/>
<rect id="windowMullion01" x="11" y="5" width="16" height="32" fill="white" stroke="black" stroke-width="2"/>
<rect id="windowGlass" x="27" y="19" width="188" height="4" fill="white" stroke="black" stroke-width="2"/>
<rect id="windowMullion02" x="215" y="5" width="16" height="32" fill="white" stroke="black" stroke-width="2"/>
</g>
</g>
<rect id="windowFrame_interstitial" x="231" y="1" width="10" height="45" fill="white" stroke="black" stroke-width="2"/>
<g id="Mullion_4in">
<rect id="mullion_rect" x="241" y="1" width="32" height="45" fill="white" stroke="black" stroke-width="2"/>
<rect id="mullion_rect_2" x="241" y="1" width="32" height="10" fill="white" stroke="black" stroke-width="2"/>
</g>
<rect id="windowFrame_interstitial_2" x="273" y="1" width="10" height="45" fill="white" stroke="black" stroke-width="2"/>
<g id="windowContainer_2">
<g id="windowPanel_2">
<rect x="283" y="5" width="220" height="32" stroke="black" stroke-width="2"/>
<rect id="windowMullion01_2" x="283" y="5" width="16" height="32" fill="white" stroke="black" stroke-width="2"/>
<rect id="windowGlass_2" x="299" y="19" width="188" height="4" fill="white" stroke="black" stroke-width="2"/>
<rect id="windowMullion02_2" x="487" y="5" width="16" height="32" fill="white" stroke="black" stroke-width="2"/>
</g>
</g>
<rect id="windowFrame_interstitial_3" x="503" y="1" width="10" height="45" fill="white" stroke="black" stroke-width="2"/>
<g id="Mullion_4in_2">
<rect id="mullion_rect_3" x="513" y="1" width="32" height="45" fill="white" stroke="black" stroke-width="2"/>
<rect id="mullion_rect_4" x="513" y="1" width="32" height="10" fill="white" stroke="black" stroke-width="2"/>
</g>
<rect id="windowFrame_interstitial_4" x="545" y="1" width="10" height="45" fill="white" stroke="black" stroke-width="2"/>
<g id="windowContainer_3">
<g id="windowPanel_3">
<rect x="555" y="5" width="220" height="32" stroke="black" stroke-width="2"/>
<rect id="windowMullion01_3" x="555" y="5" width="16" height="32" fill="white" stroke="black" stroke-width="2"/>
<rect id="windowGlass_3" x="571" y="19" width="188" height="4" fill="white" stroke="black" stroke-width="2"/>
<rect id="windowMullion02_3" x="759" y="5" width="16" height="32" fill="white" stroke="black" stroke-width="2"/>
</g>
</g>
<rect id="windowFrame02" x="775" y="1" width="10" height="58" fill="white" stroke="black" stroke-width="2"/>
</g>
</svg>
