<svg width="610" height="60" viewBox="0 0 610 60" fill="none" xmlns="http://www.w3.org/2000/svg">
<g id="window_mulled_casement_36x2_76in">
<rect x="1" y="1" width="608" height="58" fill="white"/>
<rect x="1" y="1" width="608" height="58" stroke="black" stroke-width="2"/>
<rect id="windowFrame01" x="1" y="1" width="10" height="58" fill="white" stroke="black" stroke-width="2"/>
<g id="windowContainer">
<g id="windowPanel">
<rect x="11" y="5" width="268" height="32" stroke="black" stroke-width="2"/>
<rect id="windowMullion01" x="11" y="5" width="16" height="32" fill="white" stroke="black" stroke-width="2"/>
<rect id="windowGlass" x="27" y="19" width="236" height="4" fill="white" stroke="black" stroke-width="2"/>
<rect id="windowMullion02" x="263" y="5" width="16" height="32" fill="white" stroke="black" stroke-width="2"/>
</g>
</g>
<rect id="windowFrame_interstitial" x="279" y="1" width="10" height="45" fill="white" stroke="black" stroke-width="2"/>
<g id="Mullion_4in">
<rect id="mullion_rect" x="289" y="1" width="32" height="45" fill="white" stroke="black" stroke-width="2"/>
<rect id="mullion_rect_2" x="289" y="1" width="32" height="10" fill="white" stroke="black" stroke-width="2"/>
</g>
<rect id="windowFrame_interstitial_2" x="321" y="1" width="10" height="45" fill="white" stroke="black" stroke-width="2"/>
<g id="windowContainer_2">
<g id="windowPanel_2">
<rect x="331" y="5" width="268" height="32" stroke="black" stroke-width="2"/>
<rect id="windowMullion01_2" x="331" y="5" width="16" height="32" fill="white" stroke="black" stroke-width="2"/>
<rect id="windowGlass_2" x="347" y="19" width="236" height="4" fill="white" stroke="black" stroke-width="2"/>
<rect id="windowMullion02_2" x="583" y="5" width="16" height="32" fill="white" stroke="black" stroke-width="2"/>
</g>
</g>
<rect id="windowFrame02" x="599" y="1" width="10" height="58" fill="white" stroke="black" stroke-width="2"/>
</g>
</svg>
