<svg width="1570" height="60" viewBox="0 0 1570 60" fill="none" xmlns="http://www.w3.org/2000/svg">
<g id="window_mulled_casement_36x5_196in">
<rect x="1" y="1" width="1568" height="58" fill="white"/>
<rect x="1" y="1" width="1568" height="58" stroke="black" stroke-width="2"/>
<rect id="windowFrame01" x="1" y="1" width="10" height="58" fill="white" stroke="black" stroke-width="2"/>
<g id="windowContainer">
<g id="windowPanel">
<rect x="11" y="5" width="268" height="32" stroke="black" stroke-width="2"/>
<rect id="windowMullion01" x="11" y="5" width="16" height="32" fill="white" stroke="black" stroke-width="2"/>
<rect id="windowGlass" x="27" y="19" width="236" height="4" fill="white" stroke="black" stroke-width="2"/>
<rect id="windowMullion02" x="263" y="5" width="16" height="32" fill="white" stroke="black" stroke-width="2"/>
</g>
</g>
<rect id="windowFrame_interstitial" x="279" y="1" width="10" height="45" fill="white" stroke="black" stroke-width="2"/>
<g id="Mullion_4in">
<rect id="mullion_rect" x="289" y="1" width="32" height="45" fill="white" stroke="black" stroke-width="2"/>
<rect id="mullion_rect_2" x="289" y="1" width="32" height="10" fill="white" stroke="black" stroke-width="2"/>
</g>
<rect id="windowFrame_interstitial_2" x="321" y="1" width="10" height="45" fill="white" stroke="black" stroke-width="2"/>
<g id="windowContainer_2">
<g id="windowPanel_2">
<rect x="331" y="5" width="268" height="32" stroke="black" stroke-width="2"/>
<rect id="windowMullion01_2" x="331" y="5" width="16" height="32" fill="white" stroke="black" stroke-width="2"/>
<rect id="windowGlass_2" x="347" y="19" width="236" height="4" fill="white" stroke="black" stroke-width="2"/>
<rect id="windowMullion02_2" x="583" y="5" width="16" height="32" fill="white" stroke="black" stroke-width="2"/>
</g>
</g>
<rect id="windowFrame_interstitial_3" x="599" y="1" width="10" height="45" fill="white" stroke="black" stroke-width="2"/>
<g id="Mullion_4in_2">
<rect id="mullion_rect_3" x="609" y="1" width="32" height="45" fill="white" stroke="black" stroke-width="2"/>
<rect id="mullion_rect_4" x="609" y="1" width="32" height="10" fill="white" stroke="black" stroke-width="2"/>
</g>
<rect id="windowFrame_interstitial_4" x="641" y="1" width="10" height="45" fill="white" stroke="black" stroke-width="2"/>
<g id="windowContainer_3">
<g id="windowPanel_3">
<rect x="651" y="5" width="268" height="32" stroke="black" stroke-width="2"/>
<rect id="windowMullion01_3" x="651" y="5" width="16" height="32" fill="white" stroke="black" stroke-width="2"/>
<rect id="windowGlass_3" x="667" y="19" width="236" height="4" fill="white" stroke="black" stroke-width="2"/>
<rect id="windowMullion02_3" x="903" y="5" width="16" height="32" fill="white" stroke="black" stroke-width="2"/>
</g>
</g>
<rect id="windowFrame_interstitial_5" x="919" y="1" width="10" height="45" fill="white" stroke="black" stroke-width="2"/>
<g id="Mullion_4in_3">
<rect id="mullion_rect_5" x="929" y="1" width="32" height="45" fill="white" stroke="black" stroke-width="2"/>
<rect id="mullion_rect_6" x="929" y="1" width="32" height="10" fill="white" stroke="black" stroke-width="2"/>
</g>
<rect id="windowFrame_interstitial_6" x="961" y="1" width="10" height="45" fill="white" stroke="black" stroke-width="2"/>
<g id="windowContainer_4">
<g id="windowPanel_4">
<rect x="971" y="5" width="268" height="32" stroke="black" stroke-width="2"/>
<rect id="windowMullion01_4" x="971" y="5" width="16" height="32" fill="white" stroke="black" stroke-width="2"/>
<rect id="windowGlass_4" x="987" y="19" width="236" height="4" fill="white" stroke="black" stroke-width="2"/>
<rect id="windowMullion02_4" x="1223" y="5" width="16" height="32" fill="white" stroke="black" stroke-width="2"/>
</g>
</g>
<rect id="windowFrame_interstitial_7" x="1239" y="1" width="10" height="45" fill="white" stroke="black" stroke-width="2"/>
<g id="Mullion_4in_4">
<rect id="mullion_rect_7" x="1249" y="1" width="32" height="45" fill="white" stroke="black" stroke-width="2"/>
<rect id="mullion_rect_8" x="1249" y="1" width="32" height="10" fill="white" stroke="black" stroke-width="2"/>
</g>
<rect id="windowFrame_interstitial_8" x="1281" y="1" width="10" height="45" fill="white" stroke="black" stroke-width="2"/>
<g id="windowContainer_5">
<g id="windowPanel_5">
<rect x="1291" y="5" width="268" height="32" stroke="black" stroke-width="2"/>
<rect id="windowMullion01_5" x="1291" y="5" width="16" height="32" fill="white" stroke="black" stroke-width="2"/>
<rect id="windowGlass_5" x="1307" y="19" width="236" height="4" fill="white" stroke="black" stroke-width="2"/>
<rect id="windowMullion02_5" x="1543" y="5" width="16" height="32" fill="white" stroke="black" stroke-width="2"/>
</g>
</g>
<rect id="windowFrame02" x="1559" y="1" width="10" height="58" fill="white" stroke="black" stroke-width="2"/>
</g>
</svg>
