<svg width="642" height="60" viewBox="0 0 642 60" fill="none" xmlns="http://www.w3.org/2000/svg">
<g id="window_mulled_casement_24x3_80in">
<rect x="1" y="1" width="640" height="58" fill="white"/>
<rect x="1" y="1" width="640" height="58" stroke="black" stroke-width="2"/>
<rect id="windowFrame01" x="1" y="1" width="10" height="58" fill="white" stroke="black" stroke-width="2"/>
<g id="windowContainer">
<g id="windowPanel">
<rect x="11" y="5" width="172" height="32" stroke="black" stroke-width="2"/>
<rect id="windowMullion01" x="11" y="5" width="16" height="32" fill="white" stroke="black" stroke-width="2"/>
<rect id="windowGlass" x="27" y="19" width="140" height="4" fill="white" stroke="black" stroke-width="2"/>
<rect id="windowMullion02" x="167" y="5" width="16" height="32" fill="white" stroke="black" stroke-width="2"/>
</g>
</g>
<rect id="windowFrame_interstitial" x="183" y="1" width="10" height="45" fill="white" stroke="black" stroke-width="2"/>
<g id="Mullion_4in">
<rect id="mullion_rect" x="193" y="1" width="32" height="45" fill="white" stroke="black" stroke-width="2"/>
<rect id="mullion_rect_2" x="193" y="1" width="32" height="10" fill="white" stroke="black" stroke-width="2"/>
</g>
<rect id="windowFrame_interstitial_2" x="225" y="1" width="10" height="45" fill="white" stroke="black" stroke-width="2"/>
<g id="windowContainer_2">
<g id="windowPanel_2">
<rect x="235" y="5" width="172" height="32" stroke="black" stroke-width="2"/>
<rect id="windowMullion01_2" x="235" y="5" width="16" height="32" fill="white" stroke="black" stroke-width="2"/>
<rect id="windowGlass_2" x="251" y="19" width="140" height="4" fill="white" stroke="black" stroke-width="2"/>
<rect id="windowMullion02_2" x="391" y="5" width="16" height="32" fill="white" stroke="black" stroke-width="2"/>
</g>
</g>
<rect id="windowFrame_interstitial_3" x="407" y="1" width="10" height="45" fill="white" stroke="black" stroke-width="2"/>
<g id="Mullion_4in_2">
<rect id="mullion_rect_3" x="417" y="1" width="32" height="45" fill="white" stroke="black" stroke-width="2"/>
<rect id="mullion_rect_4" x="417" y="1" width="32" height="10" fill="white" stroke="black" stroke-width="2"/>
</g>
<rect id="windowFrame_interstitial_4" x="449" y="1" width="10" height="45" fill="white" stroke="black" stroke-width="2"/>
<g id="windowContainer_3">
<g id="windowPanel_3">
<rect x="459" y="5" width="172" height="32" stroke="black" stroke-width="2"/>
<rect id="windowMullion01_3" x="459" y="5" width="16" height="32" fill="white" stroke="black" stroke-width="2"/>
<rect id="windowGlass_3" x="475" y="19" width="140" height="4" fill="white" stroke="black" stroke-width="2"/>
<rect id="windowMullion02_3" x="615" y="5" width="16" height="32" fill="white" stroke="black" stroke-width="2"/>
</g>
</g>
<rect id="windowFrame02" x="631" y="1" width="10" height="58" fill="white" stroke="black" stroke-width="2"/>
</g>
</svg>
